<?xml version="1.0" standalone="no"?>
<!DOCTYPE svg PUBLIC "-//W3C//DTD SVG 20010904//EN"
 "http://www.w3.org/TR/2001/REC-SVG-20010904/DTD/svg10.dtd">
<svg version="1.0" xmlns="http://www.w3.org/2000/svg"
 width="290.000000pt" height="320.000000pt" viewBox="0 0 290.000000 320.000000"
 preserveAspectRatio="xMidYMid meet">
<metadata>
Created by potrace 1.16, written by Peter Selinger 2001-2019
</metadata>
<g transform="translate(0.000000,320.000000) scale(0.100000,-0.100000)"
fill="#000000" stroke="none">
<path d="M269 3159 l-41 -41 -46 20 c-34 15 -49 17 -54 9 -13 -20 -9 -69 12
-145 24 -88 25 -82 -2 -82 -24 0 -122 -52 -133 -70 -12 -19 16 -49 70 -75 30
-15 55 -30 55 -34 -1 -3 -7 -17 -15 -31 -8 -14 -14 -34 -14 -45 0 -15 4 -11
13 11 13 30 33 50 41 42 2 -2 7 -22 10 -43 6 -35 2 -46 -30 -87 -20 -27 -42
-48 -50 -48 -37 0 -54 92 -29 154 5 13 4 17 -4 12 -6 -4 -16 -25 -22 -47 -14
-50 -1 -96 36 -130 l26 -24 39 44 c22 24 45 65 53 90 12 41 16 46 42 46 26 0
29 -4 32 -36 2 -27 -3 -44 -23 -67 -29 -35 -45 -80 -45 -129 0 -20 -7 -36 -17
-42 -16 -9 -16 -10 -2 -11 9 0 27 -9 40 -20 l24 -19 -55 -1 c-55 -2 -55 -2
-25 -15 17 -8 43 -12 58 -9 20 4 56 -8 135 -45 59 -28 122 -54 141 -57 l33 -7
-7 34 c-4 19 -9 37 -11 40 -2 4 -32 4 -67 2 -47 -4 -71 -1 -95 11 -18 9 -32
20 -32 25 0 13 33 39 68 54 l32 13 -25 24 c-29 28 -40 75 -26 113 8 21 17 27
40 27 49 0 80 -18 98 -55 9 -19 20 -35 23 -35 4 0 17 11 29 24 23 24 23 25 6
69 -10 27 -33 58 -60 81 -76 62 -83 160 -15 198 31 17 40 38 18 38 -27 0 -121
-29 -132 -41 -8 -8 -3 -9 22 -4 29 6 32 4 32 -17 0 -61 -55 -64 -103 -6 l-35
42 -52 -47 c-57 -51 -96 -60 -149 -33 -47 25 -57 43 -35 68 40 44 137 72 174
48 18 -11 9 -21 -33 -37 -22 -8 -26 -12 -12 -12 11 0 40 9 65 20 26 12 54 18
68 14 16 -4 32 2 53 20 17 14 43 25 59 25 15 0 41 3 57 6 l30 6 -19 36 c-23
46 -23 79 2 120 24 39 57 42 88 9 28 -30 28 -50 -3 -114 -13 -29 -22 -53 -20
-53 2 0 16 5 30 12 20 9 25 17 21 34 -5 17 5 31 39 63 24 22 49 41 54 41 5 0
7 15 4 33 -7 43 16 65 54 51 36 -13 67 -56 58 -83 -9 -29 -31 -26 -49 7 -13
23 -15 24 -15 7 -1 -22 6 -34 30 -53 14 -10 21 -4 53 44 43 64 54 62 62 -12 7
-56 -15 -114 -41 -114 -9 0 -23 -9 -32 -20 -21 -24 -92 -27 -156 -8 -37 11
-41 11 -56 -11 -9 -13 -31 -39 -48 -58 -37 -39 -39 -52 -18 -93 8 -16 20 -46
25 -67 l10 -38 -5 45 c-3 25 -8 59 -11 76 -5 25 -1 36 17 53 33 30 53 11 46
-46 -6 -59 6 -54 26 10 9 30 26 62 38 73 20 18 21 18 35 -1 20 -27 54 -121 55
-153 1 -21 3 -18 10 14 11 48 53 94 70 77 6 -6 10 -30 7 -52 -3 -34 0 -41 14
-41 30 0 31 -21 1 -58 -26 -33 -37 -38 -84 -42 -49 -5 -54 -7 -57 -30 -1 -14
-12 -57 -24 -97 -11 -39 -18 -78 -15 -87 3 -8 22 -22 42 -30 19 -8 35 -20 35
-25 0 -14 -44 -24 -70 -16 -23 7 -80 80 -80 102 0 30 -18 10 -22 -24 -3 -21
-8 -45 -12 -54 -5 -12 10 -22 68 -48 67 -29 96 -54 81 -69 -3 -3 -18 1 -33 10
-15 9 -51 23 -81 32 -65 19 -74 12 -67 -48 5 -40 15 -52 54 -62 31 -9 38 1 23
32 -15 35 -2 48 38 39 35 -7 84 -43 76 -55 -3 -4 -15 -6 -27 -2 -42 11 -8 -16
40 -32 70 -22 109 -28 116 -18 3 5 -7 26 -21 48 -39 59 -46 63 -24 14 18 -41
19 -45 4 -49 -24 -5 -58 39 -78 99 -14 41 -15 54 -4 66 14 18 64 12 111 -12
30 -15 175 -40 184 -31 3 3 -10 34 -29 68 l-36 63 -20 -47 c-18 -41 -24 -47
-50 -47 -36 0 -81 16 -81 29 0 5 16 19 36 31 47 29 37 36 -21 15 -38 -15 -52
-16 -84 -6 -65 19 -63 59 4 81 25 8 40 8 56 0 24 -13 16 -26 -21 -34 -34 -7
63 1 120 10 54 8 60 16 59 74 l0 45 -15 -39 c-8 -22 -16 -41 -18 -43 -2 -2
-25 14 -50 37 -46 39 -76 51 -76 30 0 -5 4 -10 8 -10 4 0 23 -13 42 -29 27
-23 32 -32 23 -42 -28 -28 -133 55 -133 106 0 18 7 25 29 30 33 7 98 -3 107
-16 11 -18 30 -8 41 21 14 37 24 38 61 1 l29 -29 28 18 29 19 -26 10 c-14 5
-43 14 -64 20 -52 14 -61 21 -73 54 -24 62 -12 117 37 170 35 37 61 35 69 -3
5 -28 9 -30 34 -25 23 5 29 2 41 -22 7 -15 22 -29 32 -31 17 -4 16 0 -5 38
-27 47 -82 98 -117 107 -17 4 -31 -2 -50 -20 -15 -13 -36 -29 -47 -35 -28 -13
-125 -26 -125 -15 0 4 9 23 20 41 24 39 63 57 143 67 31 3 57 9 57 11 0 13
-41 82 -56 95 -16 13 -16 12 -1 -18 23 -43 21 -63 -3 -63 -24 0 -37 28 -45 97
-8 66 2 78 47 58 54 -22 78 -58 78 -116 0 -35 4 -49 14 -49 18 0 78 42 84 59
3 10 -6 7 -26 -7 -33 -24 -52 -28 -52 -12 0 24 30 79 48 89 50 27 121 -5 108
-47 -10 -29 -55 -82 -70 -82 -7 0 -21 -6 -31 -14 -18 -13 -18 -15 12 -40 51
-43 101 -119 113 -169 13 -58 40 -117 55 -117 9 0 65 106 65 124 0 3 -6 6 -13
6 -8 0 -17 -19 -23 -47 -11 -57 -34 -70 -34 -19 0 46 15 85 48 119 32 33 49
34 63 3 9 -20 16 -23 33 -17 49 19 61 -25 26 -94 -11 -22 -20 -46 -20 -55 1
-23 70 102 70 126 0 14 -17 36 -46 59 -43 35 -48 37 -92 30 -120 -17 -121 -17
-155 4 -18 11 -42 30 -52 41 -23 26 -16 33 66 57 l56 17 -20 28 c-11 15 -22
49 -25 77 -4 45 -2 51 15 51 10 0 40 -14 66 -30 37 -23 45 -26 38 -11 -14 25
-79 81 -94 81 -8 0 -26 -13 -42 -30 -24 -25 -36 -30 -77 -30 -27 0 -57 -5 -68
-12 -16 -10 -23 -9 -42 9 -49 46 -150 59 -183 24 -17 -20 -18 -20 -70 10 -29
16 -59 27 -67 24 -16 -6 -38 -47 -38 -69 0 -8 -12 -21 -26 -31 -26 -17 -27
-17 -51 14 -44 56 -56 57 -125 11 -55 -36 -59 -42 -39 -47 17 -4 21 -12 19
-32 -2 -21 -8 -26 -30 -26 -32 1 -31 -1 14 -23 43 -22 43 -46 1 -50 -27 -3
-41 4 -80 41 -51 49 -53 72 -6 83 52 11 55 13 43 26 -6 7 -24 34 -40 61 -16
26 -34 47 -40 47 -5 0 -28 -18 -51 -41z m66 21 c4 -6 10 -24 15 -40 7 -25 4
-35 -16 -60 -21 -24 -25 -38 -23 -83 1 -29 -1 -59 -5 -65 -14 -23 -33 -11 -46
28 -7 22 -19 45 -27 51 -17 14 -16 11 2 -42 30 -84 -27 -74 -64 11 -26 61 -38
144 -22 154 6 4 34 -14 62 -41 l52 -48 -8 33 c-7 34 10 73 44 99 20 15 28 16
36 3z m72 -423 c16 -16 -18 -26 -113 -32 -72 -5 -109 -4 -116 3 -16 16 31 32
92 32 27 0 51 4 54 9 6 9 72 -1 83 -12z m37 -81 c49 -37 49 -76 0 -42 -26 19
-48 23 -51 11 -2 -6 18 -17 44 -26 62 -21 68 -39 11 -39 -54 0 -117 17 -140
38 -18 15 -25 72 -10 86 16 18 110 0 146 -28z m-136 -126 c34 -67 30 -122 -12
-167 l-34 -37 -21 34 c-40 66 -40 144 0 194 27 34 39 30 67 -24z"/>
<path d="M260 2473 c0 -24 2 -43 4 -43 8 0 12 60 4 72 -4 8 -8 -4 -8 -29z"/>
<path d="M1471 3174 c-45 -37 -61 -74 -61 -139 0 -81 -27 -74 -60 18 -5 15
-14 27 -20 27 -14 0 -13 -5 15 -61 14 -27 23 -54 20 -59 -3 -5 7 -12 22 -15
15 -3 58 -21 94 -40 37 -19 72 -35 78 -35 11 0 41 58 41 79 0 6 -12 6 -32 0
-37 -10 -68 -4 -68 14 1 27 39 95 65 115 32 26 96 30 115 7 10 -12 7 -23 -14
-59 l-26 -45 37 6 c76 12 95 25 112 78 19 57 50 83 106 87 35 3 40 0 43 -19 2
-14 -6 -32 -22 -48 -33 -33 -50 -33 -42 0 4 14 4 25 2 25 -8 0 -49 -71 -44
-76 6 -6 140 38 213 70 32 15 56 29 52 32 -3 3 -19 -2 -36 -10 -62 -32 -81
-15 -30 28 21 18 42 26 69 26 43 0 47 -3 51 -45 4 -32 -3 -38 -91 -74 l-45
-19 48 -12 c26 -7 50 -16 52 -20 6 -9 -52 -70 -66 -70 -5 0 -25 18 -45 40 -41
45 -43 46 -101 24 l-43 -17 0 -72 c0 -40 -5 -86 -11 -104 -6 -18 -9 -34 -7
-37 12 -12 37 11 44 39 10 52 44 80 44 38 0 -11 4 -22 9 -25 10 -7 61 31 61
44 0 5 -25 17 -55 25 l-55 16 0 41 0 41 37 -6 c49 -8 84 -34 106 -80 17 -33
17 -38 2 -67 -9 -17 -33 -41 -53 -53 l-37 -22 122 -3 123 -3 40 -38 c22 -21
40 -43 40 -49 0 -17 -45 -25 -111 -19 -32 3 -59 1 -59 -4 0 -5 11 -9 25 -9 29
0 33 -24 10 -57 -18 -25 -91 -41 -108 -24 -9 9 -6 17 13 32 l25 21 -35 -6
c-19 -3 -45 -8 -57 -12 -40 -11 -28 30 17 61 34 24 39 31 27 42 -7 7 -42 16
-78 19 -56 5 -73 2 -134 -25 l-70 -30 -5 -60 c-5 -61 -27 -100 -49 -87 -6 4
-11 19 -12 34 0 15 -4 35 -7 44 -7 17 -9 17 -42 0 -62 -31 -102 -149 -86 -256
l7 -44 52 -5 c29 -2 56 -3 60 0 4 3 -11 21 -33 41 -47 42 -62 99 -40 152 15
37 34 38 85 4 53 -35 65 -52 65 -90 0 -33 -20 -58 -28 -35 -5 15 -54 61 -65
61 -16 0 29 -62 55 -76 38 -20 45 -18 65 16 26 45 45 39 37 -10 l-7 -41 41 7
c22 3 64 1 92 -6 43 -10 53 -10 68 3 9 8 43 22 75 30 56 15 58 15 85 -8 27
-23 82 -44 82 -31 0 3 -25 21 -55 41 -30 19 -55 40 -55 46 0 24 51 150 75 188
25 37 79 71 92 57 4 -3 -3 -16 -14 -29 -20 -21 -43 -60 -43 -71 0 -18 19 -1
33 29 21 44 47 47 47 4 0 -45 -15 -66 -76 -105 -30 -19 -54 -40 -54 -47 0 -7
13 -23 29 -35 16 -11 40 -44 54 -72 24 -48 26 -49 29 -23 2 21 9 29 28 31 41
5 52 33 31 78 -17 34 -19 36 -25 16 -13 -39 -101 -45 -101 -7 0 14 17 30 51
50 48 28 52 33 58 78 4 29 2 61 -5 80 -10 29 -9 37 15 71 36 53 32 69 -5 24
-17 -21 -35 -38 -40 -38 -11 0 -22 64 -15 87 3 10 23 29 43 42 34 22 36 25 18
32 -37 14 -80 9 -129 -16 -27 -14 -67 -25 -88 -25 l-38 0 26 39 c14 22 24 48
22 58 -3 13 -10 6 -28 -26 -31 -56 -50 -64 -50 -22 0 44 22 91 58 125 l31 29
20 -34 c12 -19 21 -49 21 -66 0 -18 4 -33 9 -33 19 0 61 43 61 63 0 78 63 197
105 197 15 0 17 -6 11 -42 -4 -24 -18 -67 -32 -97 -13 -30 -22 -56 -20 -58 3
-3 24 21 48 53 64 87 130 152 163 160 24 6 32 3 51 -22 23 -28 24 -28 38 -9
24 32 19 43 -24 50 -60 10 -99 -3 -151 -52 l-47 -44 -12 51 c-7 28 -18 50 -25
50 -15 0 -62 -43 -92 -85 l-21 -29 -36 19 c-36 19 -37 22 -34 69 3 47 2 50
-27 58 -49 14 -100 0 -140 -38 -43 -41 -55 -42 -55 -9 0 23 -4 25 -45 25 -63
0 -100 -22 -136 -80 -17 -28 -35 -50 -40 -50 -5 0 -19 21 -32 46 -22 45 -22
46 -62 40 -22 -3 -50 -9 -62 -12 -18 -5 -25 -1 -33 22 -24 69 -36 74 -79 38z
m53 -20 c26 -67 -39 -217 -80 -184 -12 11 -11 16 4 39 33 47 36 56 10 33 -32
-29 -43 -16 -29 33 20 73 79 122 95 79z m686 -126 c11 -24 20 -51 20 -61 0
-16 -4 -15 -33 7 -19 15 -39 26 -44 26 -24 0 -33 26 -17 48 25 36 52 28 74
-20z m-346 -408 c14 -22 26 -51 26 -64 0 -26 -30 -100 -52 -129 -13 -17 -15
-17 -27 -3 -11 13 -11 28 -4 66 6 28 7 50 3 50 -9 0 -20 -25 -20 -45 0 -8 -5
-26 -11 -42 -10 -27 -11 -27 -25 -9 -17 23 -18 93 -3 133 12 33 57 83 75 83 6
0 23 -18 38 -40z m176 -85 c19 -14 40 -36 47 -48 14 -25 17 -86 4 -105 -12
-20 -60 7 -105 60 -30 35 -38 40 -46 28 -12 -18 -12 -48 0 -75 7 -16 9 -12 9
20 l1 40 31 -32 c30 -29 31 -33 19 -67 -14 -43 -23 -50 -56 -42 -52 13 -78
101 -51 171 29 72 31 73 77 31 45 -40 68 -42 31 -2 -13 14 -20 29 -16 35 9 16
17 14 55 -14z"/>
<path d="M2738 3173 c-14 -16 -30 -37 -36 -49 -6 -11 -27 -32 -47 -45 -22 -15
-45 -44 -61 -77 -20 -42 -29 -52 -42 -46 -51 22 -82 17 -147 -26 -36 -24 -63
-45 -61 -48 3 -3 38 -20 78 -38 70 -32 136 -45 123 -24 -3 6 -15 10 -26 10
-23 0 -99 37 -99 48 0 4 5 14 10 22 8 13 13 13 39 -3 16 -9 37 -17 48 -17 11
1 5 8 -20 21 -21 11 -35 24 -31 31 11 18 96 2 148 -27 l49 -28 -31 -29 c-18
-15 -32 -30 -32 -32 0 -3 11 -16 25 -30 14 -14 25 -33 25 -42 0 -11 5 -14 16
-10 9 3 30 6 47 6 l32 0 -40 23 c-41 23 -66 68 -29 52 11 -5 39 -10 64 -12 50
-3 44 2 -12 12 -43 7 -54 35 -14 35 14 0 28 5 31 10 13 21 56 9 95 -27 57 -51
52 -74 -20 -90 -30 -6 -45 -12 -32 -12 36 -2 62 -36 62 -82 l0 -41 -55 4 c-55
5 -109 32 -106 53 1 6 23 9 49 8 l47 -2 -35 14 c-55 22 -88 19 -92 -7 -2 -19
-9 -23 -35 -22 -48 3 -105 35 -130 74 -31 50 -51 70 -68 70 -12 0 -13 -4 -5
-19 17 -33 11 -59 -20 -94 -16 -19 -30 -44 -30 -55 0 -20 2 -21 46 -7 58 17
71 29 22 20 -45 -8 -51 6 -13 31 31 20 81 13 120 -17 l26 -21 -22 -24 c-28
-30 -82 -48 -120 -40 -28 5 -31 2 -49 -40 -29 -66 -25 -73 18 -31 24 24 50 39
68 40 27 2 29 -1 32 -35 3 -31 -1 -39 -23 -50 l-26 -14 36 -17 c20 -9 38 -24
41 -32 4 -10 14 -13 33 -9 38 10 43 14 32 28 -6 7 -8 37 -6 67 l5 54 -11 -42
c-8 -32 -15 -43 -30 -43 -16 0 -19 7 -19 48 0 50 38 122 64 122 24 0 41 -61
39 -142 l-1 -78 54 0 c81 0 144 -41 144 -94 0 -17 -6 -18 -76 -13 -119 9 -169
56 -61 58 46 0 49 2 27 11 -40 16 -156 3 -187 -22 -21 -16 -35 -20 -61 -15
-34 6 -34 6 -18 -17 44 -62 -17 -180 -64 -124 -6 8 -20 36 -31 63 l-20 48 5
-40 c7 -49 33 -85 73 -102 30 -12 32 -11 52 23 l21 35 47 -25 c58 -29 105 -40
134 -31 23 8 23 32 -2 92 -7 18 -10 35 -7 38 3 3 33 -1 66 -9 73 -19 93 -20
117 -3 26 20 13 58 -35 111 -22 24 -37 46 -33 50 4 3 9 39 12 78 6 71 6 72 39
82 31 8 32 11 32 58 0 35 6 58 20 75 29 38 25 62 -21 105 l-40 38 31 40 c27
34 50 86 50 113 0 4 -11 12 -24 17 -18 7 -22 14 -19 34 6 28 -26 87 -60 111
-28 20 -29 20 -59 -12z m78 -38 c25 -44 27 -72 2 -47 -7 7 -22 12 -34 12 -53
0 -66 19 -38 58 23 33 40 27 70 -23z m-10 -59 c7 -19 -11 -53 -49 -93 -31 -33
-32 -51 -2 -39 9 3 22 21 30 40 18 43 28 49 65 41 80 -18 -12 -135 -105 -135
-17 0 -29 8 -37 25 -6 14 -19 25 -30 25 -29 0 -21 26 20 59 20 17 32 30 26 31
-6 0 -32 -18 -57 -40 -25 -22 -50 -40 -56 -40 -38 0 27 88 88 120 43 23 99 26
107 6z m-91 -458 c50 -22 67 -89 44 -170 -11 -41 -23 -46 -53 -23 -33 25 -56
69 -56 108 0 46 15 48 34 5 11 -25 15 -28 15 -13 1 11 -8 35 -19 53 -30 48
-16 63 35 40z m-89 -321 c21 -19 27 -33 28 -68 1 -41 -1 -44 -28 -47 -15 -2
-39 -1 -51 2 -26 7 -85 53 -85 67 0 15 46 10 79 -8 16 -10 33 -14 37 -11 12
13 -17 37 -52 44 -41 8 -51 19 -27 33 30 17 70 12 99 -12z"/>
<path d="M2488 3039 l-33 -30 53 26 c56 27 63 35 32 35 -11 0 -34 -14 -52 -31z"/>
<path d="M532 3025 c0 -16 2 -22 5 -12 2 9 2 23 0 30 -3 6 -5 -1 -5 -18z"/>
<path d="M1593 3038 c-22 -11 -39 -38 -24 -38 4 0 18 11 31 25 26 27 25 29 -7
13z"/>
<path d="M725 3001 c27 -16 51 -28 53 -26 8 7 -10 26 -31 34 -59 22 -67 19
-22 -8z"/>
<path d="M1698 2944 c-37 -19 -54 -55 -77 -160 -21 -92 -20 -104 6 -104 13 0
93 40 112 56 2 2 -8 17 -23 34 -26 32 -32 75 -17 129 9 35 24 36 60 5 40 -34
59 -27 53 20 -4 35 -5 36 -46 36 -22 -1 -53 -7 -68 -16z"/>
<path d="M890 2920 c-26 -14 -30 -19 -15 -19 11 0 31 8 45 19 32 25 15 25 -30
0z"/>
<path d="M1240 2930 c20 -13 57 -13 65 0 4 6 -11 10 -37 10 -31 0 -39 -3 -28
-10z"/>
<path d="M1746 2828 c7 -25 25 -51 30 -45 2 2 -1 18 -7 35 -12 36 -34 45 -23
10z"/>
<path d="M963 2760 c-7 -24 -10 -46 -8 -49 8 -7 26 52 23 73 -2 14 -7 6 -15
-24z"/>
<path d="M480 2769 c0 -5 11 -27 25 -47 30 -44 32 -36 5 18 -20 40 -30 49 -30
29z"/>
<path d="M706 2735 c6 -48 10 -63 17 -54 2 2 -2 27 -9 54 l-13 50 5 -50z"/>
<path d="M1067 2773 c-11 -10 -8 -73 3 -73 6 0 10 18 10 40 0 41 -2 45 -13 33z"/>
<path d="M1380 2725 c-32 -47 -28 -61 7 -22 28 30 46 67 34 67 -6 0 -24 -20
-41 -45z"/>
<path d="M2558 2740 c18 -17 38 -30 45 -30 6 1 -4 14 -23 30 -45 39 -65 38
-22 0z"/>
<path d="M1001 2719 c-11 -18 -11 -23 1 -30 7 -5 21 -9 30 -9 15 0 15 4 7 30
-13 36 -20 37 -38 9z"/>
<path d="M1120 2707 c0 -19 6 -40 14 -46 20 -17 70 -10 74 10 4 22 -28 57 -60
65 -26 6 -28 4 -28 -29z"/>
<path d="M2095 2710 c22 -11 49 -19 60 -19 15 1 13 4 -10 13 -16 7 -43 16 -60
19 -26 5 -25 4 10 -13z"/>
<path d="M1497 2674 c-29 -58 -44 -73 -78 -76 -18 -2 -25 2 -27 20 -5 30 -36
25 -40 -6 -3 -18 5 -26 40 -41 87 -38 81 -40 112 48 33 96 29 126 -7 55z"/>
<path d="M770 2683 c0 -17 22 -16 45 1 17 12 16 13 -13 12 -18 -1 -32 -6 -32
-13z"/>
<path d="M617 2651 c-17 -28 -16 -32 4 -85 11 -31 24 -58 28 -60 12 -8 32 42
38 95 5 40 3 48 -18 63 -31 21 -32 21 -52 -13z"/>
<path d="M1140 2575 c0 -49 -22 -96 -59 -127 -17 -15 -31 -29 -31 -33 0 -3 12
-24 27 -46 l27 -41 17 35 c13 25 32 40 70 55 28 12 56 19 61 16 11 -7 1 -109
-13 -135 -5 -9 -23 -22 -41 -28 -33 -12 -68 -38 -68 -52 0 -4 13 -1 28 8 27
15 30 15 58 -5 37 -27 114 -41 114 -21 0 31 -41 264 -48 271 -4 3 -32 -4 -62
-17 -30 -13 -63 -24 -72 -25 -24 0 -23 23 2 45 14 12 17 22 10 34 -5 10 -5 23
0 32 8 12 16 12 57 -3 79 -29 85 12 7 50 -66 33 -84 30 -84 -13z"/>
<path d="M1061 2521 c-13 -18 -21 -34 -19 -37 8 -8 50 44 46 57 -2 7 -14 -1
-27 -20z"/>
<path d="M415 2500 c-11 -17 21 -57 55 -68 27 -10 29 -9 21 6 -18 32 -68 74
-76 62z"/>
<path d="M1360 2496 c0 -23 51 -190 60 -200 15 -15 21 -3 30 64 13 89 4 119
-36 136 -42 18 -54 18 -54 0z"/>
<path d="M557 2437 c-11 -29 -9 -53 4 -40 6 6 9 21 7 34 -3 21 -4 22 -11 6z"/>
<path d="M34 2410 c-12 -5 -25 -14 -29 -20 -8 -13 57 -75 108 -101 37 -19 37
-20 37 -83 0 -131 20 -160 74 -107 17 17 36 31 40 31 5 0 24 -13 43 -30 28
-25 42 -30 83 -30 48 0 50 -1 90 -55 22 -30 47 -55 55 -55 22 0 99 63 114 94
22 46 36 17 20 -43 -8 -34 -9 -55 -3 -61 7 -7 14 6 23 39 17 69 74 115 111 91
13 -9 10 -14 -15 -35 -16 -14 -24 -25 -16 -25 7 0 26 11 43 25 35 30 48 32 48
7 0 -31 -76 -85 -219 -157 -58 -29 -168 -49 -213 -39 -26 5 -28 9 -28 58 0 79
-13 91 -102 91 -133 0 -174 -38 -205 -193 -19 -94 -11 -175 22 -208 33 -33 97
-48 205 -47 111 1 215 26 332 78 43 19 115 51 160 72 45 20 97 37 116 37 33 1
35 -1 49 -49 21 -73 36 -85 100 -85 44 0 59 5 78 24 36 36 40 69 22 196 -21
155 -27 167 -86 192 -45 19 -50 25 -55 61 -10 63 7 74 90 60 85 -15 129 -51
119 -98 -14 -66 -16 -126 -5 -159 13 -41 69 -94 144 -136 57 -32 76 -57 51
-66 -23 -9 -18 -21 15 -33 17 -5 30 -13 30 -16 0 -3 -17 -14 -37 -23 l-38 -17
38 -3 c45 -4 50 -28 7 -37 -35 -8 -40 -25 -7 -25 28 0 51 -15 43 -28 -3 -5
-22 -13 -41 -16 -46 -9 -45 -24 2 -28 52 -4 54 -26 4 -34 -52 -8 -52 -20 -1
-29 22 -4 40 -11 40 -16 0 -5 -18 -18 -40 -29 -47 -24 -44 -40 6 -40 54 0 40
-23 -31 -52 l-30 -13 48 -3 c62 -4 64 -28 2 -43 -41 -10 -45 -14 -45 -43 0
-17 11 -53 24 -81 23 -49 68 -99 264 -289 l92 -89 88 8 c48 5 119 9 157 9 l70
1 5 -35 c5 -32 9 -36 50 -46 34 -8 75 -8 165 2 69 8 158 11 210 8 71 -5 98 -3
129 10 25 10 69 16 125 17 47 0 95 4 106 9 15 7 16 9 4 9 -9 1 -31 15 -48 33
-29 30 -31 30 -31 10 0 -32 -15 -27 -40 13 -25 41 -45 46 -36 10 10 -39 -17
-31 -48 14 -15 22 -35 46 -45 55 -16 15 -17 12 -13 -46 5 -69 -8 -72 -36 -9
-12 29 -16 32 -19 16 -15 -82 -24 -85 -49 -15 -17 48 -34 66 -34 36 0 -18 -23
-37 -36 -28 -6 4 -15 94 -22 202 -6 107 -19 251 -27 320 -13 97 -14 135 -5
169 16 62 14 151 -5 250 -23 119 -43 173 -72 197 -20 17 -25 30 -25 67 0 25 3
51 6 56 10 16 -12 60 -49 98 -32 33 -42 37 -88 38 -50 0 -51 -1 -58 -33 -4
-18 -21 -51 -38 -72 -35 -44 -38 -55 -15 -64 24 -9 9 -73 -27 -114 -18 -20
-29 -44 -29 -62 0 -16 -5 -74 -11 -130 l-12 -100 -29 0 c-61 0 -106 43 -136
129 -13 37 -4 91 21 126 13 17 17 15 50 -38 40 -62 40 -62 68 -47 26 15 24 30
-5 30 -30 0 -106 91 -106 126 0 13 -13 38 -29 56 -28 33 -30 39 -34 99 -1 18
-10 37 -20 43 -15 9 -21 6 -37 -14 -27 -36 -35 -18 -18 42 l14 52 65 13 c232
48 319 60 338 47 10 -8 38 -16 62 -19 l44 -6 -39 15 c-22 8 -49 26 -60 40
l-21 26 -71 -25 c-89 -31 -256 -58 -311 -51 -31 4 -42 2 -40 -7 2 -13 -15 -14
-57 -3 -21 5 -23 3 -18 -16 4 -18 2 -20 -14 -14 -49 21 -57 20 -45 -3 13 -24
6 -26 -34 -11 -26 10 -27 9 -21 -15 6 -22 3 -25 -21 -25 l-26 0 24 -26 24 -27
-40 7 -40 6 35 -30 c35 -31 34 -33 -10 -31 l-25 2 28 -22 c35 -27 34 -37 -5
-41 l-33 -3 33 -18 c38 -21 42 -37 8 -37 -37 0 -41 -17 -6 -25 32 -7 40 -23
15 -30 -50 -16 -51 -17 -12 -32 37 -15 54 -53 23 -53 -27 0 -165 99 -171 122
-3 13 -2 52 3 87 9 61 8 66 -15 88 -56 57 -223 104 -250 71 -7 -7 -13 -36 -15
-63 -3 -46 -5 -50 -31 -53 -27 -3 -28 -2 -21 32 4 24 2 36 -5 36 -6 0 -11 -13
-11 -28 0 -34 -16 -52 -47 -52 -23 0 -23 1 -9 34 l14 33 -132 5 c-89 3 -150
11 -189 24 -55 17 -60 17 -85 1 -93 -58 -141 -60 -195 -6 -37 38 -25 55 46 64
57 8 104 23 75 24 -9 1 -50 19 -92 41 -60 32 -86 40 -127 40 -76 0 -160 45
-171 89 -2 10 13 18 52 27 l55 12 -45 0 c-25 1 -55 -3 -66 -8z m190 -145 c-1
-6 -4 -26 -7 -45 l-6 -35 19 37 c23 43 31 50 49 38 33 -20 1 -92 -68 -154 -20
-18 -21 -18 -31 10 -12 31 -15 137 -5 154 8 13 51 9 49 -5z m1456 -91 c0 -27
-20 -54 -40 -54 -11 0 -20 5 -20 10 0 6 -11 10 -25 10 -37 0 -33 -35 5 -49 25
-8 30 -16 30 -41 0 -23 -6 -33 -25 -42 -26 -12 -33 -32 -15 -43 6 -3 10 -24
10 -45 0 -31 4 -40 21 -45 13 -5 27 -1 36 8 14 13 19 12 52 -8 61 -40 83 -67
77 -96 -3 -16 6 -56 23 -100 33 -87 67 -113 133 -103 31 5 38 3 38 -10 0 -8
-15 -22 -32 -29 -50 -21 -72 -51 -58 -76 6 -12 8 -26 5 -31 -3 -5 -1 -18 4
-29 11 -20 47 -35 112 -45 46 -8 51 -15 135 -164 70 -126 105 -169 184 -233
l45 -36 0 -69 0 -69 -100 0 -100 0 -7 80 c-4 44 -14 103 -22 130 l-16 50 5
-75 c3 -41 6 -86 8 -99 3 -38 -38 -57 -99 -45 l-49 9 2 50 c1 28 5 136 9 240
3 105 3 187 -1 183 -9 -9 -34 -300 -35 -400 0 -68 0 -68 -28 -68 -15 0 -34 6
-41 12 -11 10 -14 10 -18 1 -7 -20 -31 -15 -43 8 -11 20 -12 20 -25 2 -21 -29
-28 -9 -11 32 24 57 19 64 -18 23 -39 -45 -46 -47 -46 -13 0 30 -16 33 -23 4
-9 -33 -27 -12 -27 32 0 45 -11 50 -30 14 -37 -69 -56 4 -75 282 -6 83 -5 93
14 112 29 29 96 61 126 61 33 0 75 -42 75 -75 0 -43 -27 -85 -55 -85 -21 0
-25 5 -25 32 0 30 -1 31 -16 16 -22 -21 -10 -54 22 -62 67 -17 118 80 81 154
-7 14 -30 34 -52 45 -35 19 -41 27 -53 78 -12 46 -26 70 -73 122 -32 36 -65
75 -73 87 -23 38 -44 331 -24 355 6 8 5 19 -2 34 -16 28 -1 43 65 63 65 19 85
19 85 0z m549 -29 c15 -16 12 -17 -44 -10 -67 8 -70 9 -60 25 10 17 84 6 104
-15z m19 -41 c18 -12 22 -23 22 -67 0 -31 -6 -61 -15 -73 -14 -18 -14 -17 -15
16 l-1 35 -19 -37 c-18 -34 -54 -57 -67 -44 -4 3 1 14 10 24 16 17 50 112 43
119 -8 8 -26 -27 -34 -63 -6 -29 -13 -39 -27 -39 -26 0 -34 54 -11 67 22 12
20 25 -4 33 -23 7 -26 25 -7 44 15 15 91 6 125 -15z m-1624 -7 c15 -11 16 -18
8 -34 -16 -30 -92 -95 -105 -90 -7 2 -18 23 -26 47 -13 41 -13 44 9 62 32 26
40 23 35 -14 -5 -32 -5 -33 7 -8 28 56 39 61 72 37z m1046 5 c0 -13 -12 -22
-22 -16 -10 6 -1 24 13 24 5 0 9 -4 9 -8z m87 -38 c2 -7 -4 -19 -13 -29 -15
-15 -18 -15 -32 -1 -13 12 -13 18 -2 31 14 17 41 17 47 -1z m353 -7 c0 -23
-24 -47 -38 -38 -12 7 -12 12 -1 30 15 23 39 28 39 8z m-420 -37 c0 -13 -7
-20 -20 -20 -13 0 -20 7 -20 20 0 13 7 20 20 20 13 0 20 -7 20 -20z m-420 -30
c0 -38 -15 -54 -26 -27 -5 14 11 67 21 67 3 0 5 -18 5 -40z m-183 10 c17 -6
35 -22 41 -35 11 -24 36 -184 30 -191 -3 -2 -30 1 -61 6 -99 16 -184 -6 -394
-99 -125 -55 -229 -81 -348 -88 -114 -6 -197 11 -231 48 -23 26 -26 127 -4
202 15 55 11 54 111 18 34 -12 96 -23 160 -27 132 -8 196 7 327 79 91 50 160
80 207 90 40 9 133 7 162 -3z m697 -24 c31 -28 36 -40 36 -78 0 -24 -7 -53
-15 -64 -8 -10 -15 -13 -15 -7 0 7 -18 25 -40 39 -38 25 -39 28 -24 45 15 17
17 17 38 -4 11 -13 18 -18 14 -13 -5 6 -8 20 -8 31 0 12 -9 30 -20 40 -21 19
-27 45 -11 45 5 0 26 -15 45 -34z m-1421 2 c23 -18 10 -33 -38 -46 l-40 -11
43 5 42 6 0 -36 c0 -33 -3 -36 -27 -36 -54 0 -103 20 -103 41 0 11 8 23 17 26
9 4 25 15 36 26 20 20 19 20 -19 12 -49 -9 -53 -12 -64 -41 -11 -27 -32 -31
-50 -9 -16 19 1 42 45 61 38 17 136 18 158 2z m1275 -5 c-2 -10 -10 -18 -18
-18 -8 0 -16 8 -18 18 -2 12 3 17 18 17 15 0 20 -5 18 -17z m80 -11 c4 -28
-24 -40 -45 -19 -21 21 -9 49 19 45 15 -2 24 -11 26 -26z m400 1 c21 -52 24
-80 12 -122 -13 -49 -27 -53 -33 -8 -2 21 -4 14 -5 -22 -2 -62 -21 -131 -35
-131 -13 0 -1 201 15 250 6 19 12 41 14 48 6 21 21 13 32 -15z m-460 -46 c2
-12 -3 -17 -17 -17 -15 0 -21 6 -21 21 0 25 33 22 38 -4z m593 -7 l-23 -20 26
0 c33 0 33 -7 -1 -43 l-28 -30 38 7 c20 4 37 5 37 2 0 -3 -15 -22 -32 -43 -25
-28 -28 -35 -13 -29 49 20 58 20 47 0 -6 -10 -22 -30 -36 -43 -36 -34 -32 -43
10 -25 49 20 42 -1 -14 -41 -51 -38 -53 -50 -4 -29 20 9 43 18 51 22 9 3 12 0
9 -8 -2 -8 -31 -28 -64 -46 -58 -32 -98 -63 -90 -71 5 -5 82 33 119 59 16 11
31 17 35 13 10 -10 -55 -61 -115 -91 -29 -15 -53 -29 -53 -31 0 -5 36 2 64 13
34 13 14 -17 -25 -36 -46 -24 -46 -38 0 -22 40 14 39 0 -1 -33 l-33 -27 38 7
c46 7 48 -6 5 -34 l-33 -21 63 7 c35 3 62 2 62 -3 0 -5 -18 -20 -40 -34 -47
-29 -45 -36 4 -20 58 19 64 6 16 -30 -42 -30 -43 -32 -15 -26 17 4 41 10 55
12 l25 5 -26 -23 c-14 -13 -35 -28 -45 -35 -16 -10 -12 -11 24 -6 52 7 57 -10
8 -34 -32 -15 -37 -15 -59 0 -30 20 -103 127 -152 226 -25 50 -39 93 -42 132
-6 66 3 84 47 94 41 9 86 45 69 56 -11 6 -11 17 -3 49 9 33 9 38 -2 29 -8 -6
-19 -30 -25 -53 -6 -22 -17 -48 -25 -57 -16 -17 -91 -45 -99 -37 -11 11 12
299 25 311 10 10 11 -4 8 -68 -3 -49 -1 -96 7 -120 l12 -40 28 60 c16 33 36
70 46 83 9 12 23 45 30 73 14 55 30 67 84 68 l30 0 -24 -19z m-892 -77 c101
-71 191 -144 191 -154 0 -22 -36 -6 -70 31 -20 22 -54 47 -76 56 -46 19 -110
68 -125 95 -16 31 8 23 80 -28z m-265 -69 c19 -7 21 -47 4 -62 -7 -5 -28 -13
-47 -17 -38 -8 -51 3 -51 47 0 20 6 28 23 31 37 7 55 7 71 1z m65 -33 c16 -28
-4 -86 -35 -99 -37 -17 -93 -15 -101 4 -8 23 11 37 59 43 33 5 44 11 46 26 8
49 16 56 31 26z m454 -128 c49 -47 69 -86 65 -126 -2 -26 -11 -36 -46 -56 -24
-13 -47 -19 -51 -15 -7 8 -31 177 -31 218 0 26 23 18 63 -21z m408 -128 c7
-63 -2 -95 -26 -95 -18 0 -19 11 -2 30 6 8 3 7 -9 -3 -11 -9 -29 -17 -39 -17
-16 0 -14 5 11 32 l29 31 -32 -21 c-17 -12 -36 -22 -42 -22 -16 0 -13 20 3 26
8 3 22 17 31 31 16 24 16 24 -4 14 -52 -28 -54 -4 -3 33 58 41 76 33 83 -39z
m-531 -304 c0 -5 -11 -16 -24 -24 -20 -14 -26 -14 -36 -2 -9 10 -7 16 7 24 22
13 53 14 53 2z m848 -73 c-6 -18 -52 -32 -74 -23 -16 6 -14 9 16 20 45 17 63
18 58 3z m-840 -15 c-2 -10 -10 -18 -18 -18 -8 0 -16 8 -18 18 -2 12 3 17 18
17 15 0 20 -5 18 -17z m852 -22 c0 -18 -32 -41 -56 -41 -46 0 -27 18 54 49 1
1 2 -3 2 -8z m-288 -253 c61 -13 84 -29 74 -54 -5 -14 -14 -15 -49 -10 -23 4
-58 6 -77 5 -82 -6 -123 -3 -127 8 -2 6 13 17 34 23 21 7 47 19 58 26 24 17
21 17 87 2z m272 -58 c34 -12 33 -28 -1 -40 -16 -6 -44 -19 -64 -30 -42 -23
-87 -26 -113 -7 -17 12 -15 16 30 50 52 38 98 46 148 27z"/>
<path d="M1570 2045 c0 -10 7 -15 18 -13 21 4 19 22 -2 26 -10 2 -16 -3 -16
-13z"/>
<path d="M1075 1954 c-5 -1 -22 -5 -37 -8 -40 -9 -37 -42 7 -67 19 -12 35 -27
35 -35 0 -16 -26 -19 -35 -4 -11 17 -32 11 -38 -11 -4 -16 -3 -18 9 -8 7 6 21
8 30 5 28 -11 54 3 54 29 0 16 -11 30 -36 45 -27 15 -34 24 -26 32 8 8 15 8
27 -2 8 -7 18 -10 21 -7 9 9 0 34 -11 31z"/>
<path d="M940 1941 c0 -5 5 -13 10 -16 6 -3 10 -24 10 -46 0 -33 -3 -40 -17
-37 -12 2 -20 17 -25 47 -9 52 -12 56 -35 47 -11 -5 -13 -10 -7 -14 6 -4 15
-25 20 -47 9 -35 13 -40 41 -43 23 -2 34 2 42 17 15 27 0 95 -22 99 -9 2 -17
-1 -17 -7z"/>
<path d="M789 1903 c-14 -3 -15 -8 -3 -41 7 -20 13 -47 14 -60 l0 -22 40 20
c42 21 45 26 31 48 -6 10 -10 7 -15 -13 -4 -14 -12 -25 -19 -22 -16 5 -27 73
-13 87 10 10 -3 12 -35 3z"/>
<path d="M683 1843 c-19 -16 -20 -22 -9 -63 10 -40 14 -45 36 -42 43 5 62 32
52 78 -6 32 -12 40 -33 42 -14 2 -35 -5 -46 -15z m48 -20 c13 -35 8 -68 -11
-68 -8 0 -18 14 -23 32 -17 57 14 89 34 36z"/>
<path d="M593 1808 c-44 -26 -43 -54 2 -75 19 -9 35 -21 35 -25 0 -15 -31 -21
-43 -9 -17 17 -25 13 -20 -13 l5 -23 39 19 c52 25 54 57 3 81 -38 19 -38 41 1
31 20 -5 23 -3 18 15 -3 12 -6 21 -7 20 0 0 -16 -10 -33 -21z"/>
<path d="M158 1771 c2 -27 -1 -58 -7 -70 -10 -18 -9 -21 8 -21 17 0 18 5 14
40 -3 23 -1 40 4 40 6 0 18 -18 28 -40 10 -22 22 -40 26 -40 4 0 11 21 15 48
3 26 13 55 22 65 14 15 13 17 -6 17 -18 0 -22 -6 -22 -29 0 -43 -17 -47 -30
-7 -10 30 -26 46 -48 46 -4 0 -5 -22 -4 -49z"/>
<path d="M477 1758 l6 -43 -30 28 c-16 15 -32 27 -36 27 -4 0 -6 -27 -5 -60 3
-49 6 -60 21 -60 21 0 21 1 2 36 -21 41 -10 42 29 5 l34 -33 4 71 c3 61 1 71
-14 71 -13 0 -15 -7 -11 -42z"/>
<path d="M292 1771 c-9 -5 -12 -25 -10 -62 l3 -54 36 -3 c33 -3 38 0 48 29 6
18 11 42 11 55 0 35 -54 57 -88 35z m55 -47 c-5 -49 -18 -70 -36 -60 -14 9
-14 61 -1 87 6 10 18 19 27 19 13 0 15 -8 10 -46z"/>
<path d="M2400 2411 c0 -9 44 -41 56 -41 4 0 -3 11 -16 25 -24 26 -40 32 -40
16z"/>
<path d="M1173 2378 c-6 -7 -13 -25 -17 -40 -3 -14 -9 -34 -13 -45 -3 -10 -2
-14 3 -10 10 9 45 99 40 104 -2 2 -8 -2 -13 -9z"/>
<path d="M420 2360 c-12 -8 -10 -9 10 -9 14 1 39 5 55 9 29 7 29 8 -10 9 -22
0 -47 -4 -55 -9z"/>
<path d="M2380 2313 c1 -5 12 -28 25 -53 17 -32 24 -39 25 -24 0 34 -21 84
-36 84 -8 0 -14 -3 -14 -7z"/>
<path d="M925 2222 c3 -20 10 -41 15 -45 10 -11 39 4 64 32 21 23 21 22 -48
40 l-38 10 7 -37z"/>
<path d="M2255 2239 l-30 -6 28 -8 c28 -8 42 -3 36 12 -2 5 -17 6 -34 2z"/>
<path d="M435 2160 c-39 -6 -39 -6 -12 -14 31 -9 77 -1 77 14 0 11 -4 11 -65
0z"/>
<path d="M1268 1638 c-2 -51 0 -106 5 -121 7 -22 6 -32 -6 -44 -12 -12 -13
-22 -5 -47 14 -40 28 -56 28 -31 0 11 1 83 3 160 2 76 2 147 -1 157 -11 42
-20 12 -24 -74z"/>
<path d="M1233 1339 c-7 -7 -13 -25 -13 -40 0 -28 -33 -62 -71 -74 -10 -4 -22
-18 -25 -33 -14 -69 -38 -114 -68 -133 -17 -10 -34 -19 -38 -19 -11 0 -10 48
1 86 8 28 6 33 -15 43 -27 12 -30 23 -11 39 25 21 63 24 81 7 14 -15 16 -15
16 0 0 8 -12 20 -26 25 -29 12 -80 -7 -110 -41 -18 -20 -18 -21 5 -38 19 -14
22 -24 17 -44 -7 -30 20 -97 40 -97 7 0 31 11 55 24 33 19 47 22 67 15 40 -15
52 -5 52 44 0 29 -7 53 -20 70 -20 26 -20 26 -1 36 11 6 31 11 45 11 28 0 43
-19 100 -125 21 -38 57 -91 80 -116 171 -190 187 -224 115 -247 -22 -7 -45
-10 -50 -6 -5 3 -28 -10 -49 -30 -34 -31 -47 -36 -88 -36 -36 0 -54 5 -67 20
-10 11 -24 20 -32 20 -23 0 -14 30 11 40 14 5 40 6 60 3 45 -7 68 1 59 23 -5
14 -17 16 -72 11 -55 -4 -68 -9 -81 -29 -8 -12 -29 -38 -46 -55 -37 -38 -55
-40 -195 -21 -71 9 -96 9 -128 -2 -33 -11 -46 -11 -71 0 -44 18 -84 23 -167
22 -74 -2 -99 9 -64 27 33 18 183 51 231 51 25 0 61 5 80 11 19 6 62 14 95 18
l60 7 -40 9 c-24 5 -55 4 -80 -3 -47 -12 -54 -9 -36 19 18 30 5 37 -30 16 -47
-26 -57 -22 -61 26 l-4 42 -26 -57 c-31 -64 -41 -74 -58 -53 -10 12 -16 11
-44 -10 -38 -29 -46 -31 -46 -11 0 24 36 59 71 71 23 8 35 19 37 33 4 28 2 28
-56 -8 -55 -33 -62 -36 -62 -17 1 6 21 27 46 45 44 33 60 58 71 115 5 23 2 27
-16 27 -37 0 -59 -18 -96 -76 -20 -31 -39 -54 -42 -50 -3 3 0 32 6 65 13 66 5
117 -25 159 l-16 23 -24 -22 c-13 -12 -31 -44 -40 -71 -16 -48 -15 -49 15
-134 34 -95 42 -184 16 -184 -8 0 -15 8 -15 19 0 10 -7 24 -15 31 -9 7 -13 20
-10 28 5 14 -23 72 -36 72 -8 0 -28 -75 -31 -120 -3 -29 -8 -36 -33 -43 -16
-5 -43 -13 -60 -19 -16 -6 -72 -13 -123 -17 -76 -6 -97 -11 -114 -29 -17 -16
-19 -25 -11 -33 9 -9 20 -5 43 15 36 30 35 30 95 14 41 -11 47 -10 74 10 38
28 59 28 63 0 3 -21 8 -23 58 -21 30 2 76 -2 102 -7 38 -8 57 -6 104 10 l58
20 38 -25 c21 -14 52 -25 70 -25 268 -4 359 0 417 15 61 16 66 15 131 -4 38
-12 75 -21 83 -21 8 0 38 16 67 35 60 41 73 42 107 15 34 -27 45 -25 37 5 -7
30 -8 30 41 5 41 -21 65 -25 65 -12 0 4 -15 12 -32 17 -42 13 -42 29 0 33 18
2 30 8 27 13 -4 5 -17 6 -31 3 -19 -5 -24 -2 -24 13 0 21 -19 44 -137 172 -42
47 -86 107 -107 149 -20 40 -40 72 -45 72 -11 0 -59 128 -63 168 -2 27 -5 31
-15 21z m-741 -256 c15 -49 11 -152 -6 -156 -10 -2 -46 90 -46 119 0 28 20 84
30 84 5 0 15 -21 22 -47z m158 -65 c-1 -28 -40 -98 -64 -114 -36 -23 -43 -12
-21 36 29 64 85 116 85 78z m-225 -306 c0 -9 -16 -15 -47 -18 -36 -2 -48 0
-48 11 0 16 23 24 65 22 18 -1 30 -8 30 -15z"/>
<path d="M1258 995 c-4 -62 -7 -69 -39 -96 -18 -15 -72 -43 -118 -61 -58 -23
-76 -34 -61 -36 22 -4 194 52 216 70 15 11 29 167 16 180 -6 6 -11 -15 -14
-57z"/>
<path d="M1090 759 c-27 -17 -43 -20 -80 -15 -69 10 -139 6 -174 -9 -29 -12
-22 -13 84 -14 128 -1 213 16 218 42 4 22 -6 21 -48 -4z"/>
<path d="M266 384 c-6 -15 -22 -16 -131 -12 -69 3 -125 1 -125 -4 0 -4 13 -8
30 -8 l30 0 0 -165 0 -165 -35 0 c-19 0 -35 -4 -35 -10 0 -6 57 -10 150 -10
149 0 150 0 156 24 3 13 4 37 2 52 l-4 29 -13 -33 c-17 -41 -37 -52 -101 -52
-46 0 -51 3 -61 27 -5 15 -9 50 -7 77 l3 51 53 3 c47 3 52 1 52 -17 0 -12 5
-21 10 -21 6 0 10 23 10 50 0 50 -16 70 -22 28 -3 -20 -9 -23 -53 -23 l-50 0
0 75 0 75 66 3 66 3 6 -31 c10 -48 27 -35 27 20 0 49 -12 66 -24 34z"/>
<path d="M950 386 c0 -11 -13 -13 -57 -9 -71 5 -117 -18 -128 -66 -10 -47 13
-82 92 -134 81 -53 96 -80 69 -122 -32 -49 -138 -24 -149 35 -11 52 -27 34
-27 -30 0 -63 5 -71 25 -44 9 13 16 14 33 5 29 -15 98 -14 131 3 27 14 51 53
51 82 0 34 -33 74 -95 112 -77 49 -96 79 -71 117 29 44 126 28 126 -21 0 -8 5
-14 10 -14 6 0 10 23 10 50 0 28 -4 50 -10 50 -5 0 -10 -6 -10 -14z"/>
<path d="M1336 384 c-6 -15 -22 -16 -131 -12 -69 3 -125 1 -125 -4 0 -4 14 -8
30 -8 l30 0 0 -165 0 -165 -30 0 c-16 0 -30 -4 -30 -10 0 -6 56 -10 149 -10
l149 0 6 31 c9 44 8 69 -3 69 -5 0 -12 -14 -16 -31 -8 -37 -40 -51 -109 -47
l-51 3 -3 78 -3 77 51 0 c43 0 50 -3 50 -20 0 -11 5 -20 10 -20 6 0 10 23 10
50 0 50 -16 70 -22 28 -3 -20 -10 -23 -50 -26 l-48 -3 0 80 0 81 64 0 c63 0
65 0 71 -30 10 -47 25 -35 25 20 0 49 -12 66 -24 34z"/>
<path d="M2384 386 c-11 -18 -21 -19 -138 -14 -69 3 -126 2 -126 -2 0 -5 15
-10 33 -12 l32 -3 0 -160 0 -160 -32 -3 c-18 -2 -33 -7 -33 -13 0 -5 63 -9
149 -9 l148 0 7 37 c8 52 8 63 -3 63 -5 0 -12 -14 -16 -31 -8 -35 -36 -49 -95
-49 -67 0 -70 4 -70 86 l0 74 49 0 c41 0 51 -4 56 -20 12 -37 25 -21 25 30 0
53 -14 67 -24 24 -6 -23 -10 -25 -54 -22 l-47 3 -3 78 -3 77 66 0 c50 0 67 -4
70 -15 15 -46 19 -50 23 -22 2 15 2 39 0 55 -3 25 -4 25 -14 8z"/>
<path d="M400 368 c0 -4 14 -8 30 -8 l30 0 0 -165 0 -165 -30 0 c-16 0 -30 -4
-30 -10 0 -6 53 -10 140 -10 127 0 140 2 140 18 0 9 3 34 6 54 9 52 -12 50
-26 -2 -9 -33 -15 -40 -44 -45 -18 -4 -46 -5 -62 -3 l-29 3 -3 163 -2 162 30
0 c16 0 30 3 30 8 0 4 -41 7 -90 7 -50 1 -90 -3 -90 -7z"/>
<path d="M1420 368 c0 -4 11 -8 24 -8 21 0 28 -15 83 -172 49 -144 63 -174 80
-176 23 -3 21 -9 103 226 34 97 46 122 61 122 11 0 19 4 19 8 0 5 -29 9 -65 9
-36 0 -65 -3 -65 -8 0 -5 14 -9 30 -9 17 0 30 -3 30 -6 0 -15 -92 -285 -96
-281 -6 5 -94 268 -94 279 0 4 14 8 30 8 17 0 30 4 30 9 0 4 -38 8 -85 8 -47
-1 -85 -5 -85 -9z"/>
<path d="M1850 368 c0 -5 14 -8 30 -8 l30 0 0 -165 0 -165 -35 0 c-19 0 -35
-4 -35 -10 0 -6 38 -10 95 -10 52 0 95 4 95 9 0 6 -15 11 -32 13 l-33 3 0 160
0 160 33 3 c66 7 29 18 -58 17 -49 0 -90 -3 -90 -7z"/>
<path d="M2520 370 c0 -6 14 -10 30 -10 l30 0 0 -165 0 -165 -30 0 c-16 0 -30
-4 -30 -10 0 -6 37 -10 90 -10 53 0 90 4 90 10 0 6 -13 10 -30 10 l-30 0 0 75
c0 71 1 75 23 75 16 -1 36 -22 78 -83 l55 -82 52 -3 c32 -2 52 1 52 7 0 6 -9
11 -19 11 -20 0 -92 76 -124 130 -18 29 -18 30 0 37 64 22 85 99 39 142 -25
24 -43 27 -188 35 -53 3 -88 1 -88 -4z m224 -40 c11 -11 18 -32 18 -56 0 -48
-29 -74 -83 -74 l-39 0 0 81 0 81 43 -7 c23 -4 50 -15 61 -25z"/>
</g>
</svg>
