<?xml version="1.0" standalone="no"?>
<!DOCTYPE svg PUBLIC "-//W3C//DTD SVG 20010904//EN"
 "http://www.w3.org/TR/2001/REC-SVG-20010904/DTD/svg10.dtd">
<svg version="1.0" xmlns="http://www.w3.org/2000/svg"
 width="512.000000pt" height="484.000000pt" viewBox="0 0 512.000000 484.000000"
 preserveAspectRatio="xMidYMid meet">
<metadata>
Created by potrace 1.16, written by Peter Selinger 2001-2019
</metadata>
<g transform="translate(0.000000,484.000000) scale(0.100000,-0.100000)"
fill="#000000" stroke="none">
<path d="M2532 4824 c-15 -10 -32 -13 -51 -9 -23 5 -78 -16 -275 -104 -136
-61 -270 -124 -299 -140 -70 -39 -330 -151 -351 -151 -10 0 -34 -13 -54 -29
-20 -17 -86 -52 -147 -79 -364 -163 -811 -379 -803 -388 3 -2 61 23 129 57
145 72 253 115 247 98 -8 -25 -228 -127 -353 -164 -90 -27 -145 -53 -145 -67
0 -4 7 -8 15 -8 37 0 6 -22 -102 -75 -140 -67 -179 -83 -233 -89 -90 -10 -115
-59 -106 -205 3 -47 8 -535 11 -1084 3 -628 8 -1004 15 -1015 6 -12 9 58 10
216 0 174 3 233 12 230 12 -4 13 -317 1 -431 l-6 -58 50 -47 c28 -27 94 -70
154 -101 57 -30 170 -94 250 -142 80 -48 211 -122 290 -165 79 -42 225 -121
324 -174 490 -266 719 -389 810 -435 55 -28 136 -73 180 -99 66 -38 161 -87
307 -158 10 -4 24 -8 31 -8 8 0 124 54 257 120 134 66 253 120 264 120 12 0
137 59 279 131 141 71 262 127 267 124 12 -7 97 29 125 54 26 24 378 205 430
221 48 15 279 130 390 194 44 25 86 46 93 46 15 0 402 202 496 259 67 41 81
61 40 58 -20 -2 -31 5 -45 28 -15 25 -18 55 -18 196 -1 122 3 176 13 200 9 22
11 41 5 56 -7 18 -3 26 22 44 38 27 35 57 -9 84 -31 19 -32 23 -27 64 3 24 8
117 11 205 6 196 8 204 37 208 33 5 36 45 4 53 -14 4 -28 16 -31 28 -3 12 -6
120 -6 240 0 198 2 218 18 224 22 8 52 34 52 45 0 4 -11 6 -25 2 -22 -5 -27
-1 -39 28 -13 29 -13 71 -6 259 5 123 9 225 10 225 0 1 9 4 20 7 34 9 36 36 3
68 -35 36 -63 31 -63 -12 0 -32 -33 -69 -62 -69 -10 0 -99 -40 -198 -90 -203
-102 -226 -108 -199 -59 11 22 326 178 376 186 22 4 33 12 35 26 2 11 17 27
35 37 l32 17 -22 20 c-32 29 -145 89 -352 186 -225 106 -520 251 -645 318 -52
28 -111 56 -130 61 -37 11 -337 153 -357 170 -7 5 -104 54 -215 107 -112 54
-225 111 -253 127 -27 17 -72 38 -100 48 -27 10 -119 54 -204 97 -84 44 -163
79 -175 79 -12 0 -32 -7 -44 -16z m246 -116 c102 -51 198 -105 214 -120 18
-17 41 -28 58 -28 33 0 414 -190 413 -205 -1 -5 -23 -18 -49 -28 -48 -18 -48
-18 -31 1 17 19 16 20 -23 26 -22 3 -97 35 -167 71 -71 35 -140 69 -155 74
-16 6 -30 21 -34 36 -4 15 -13 25 -24 25 -10 0 -102 -41 -204 -91 -135 -66
-190 -89 -198 -81 -15 15 3 36 45 52 67 27 276 130 282 140 4 6 -8 10 -32 10
-27 0 -66 16 -137 55 -54 30 -123 66 -153 79 -29 14 -53 27 -53 30 0 9 43 46
54 46 6 0 93 -41 194 -92z m-296 55 c25 -28 6 -61 -49 -85 -27 -11 -87 -38
-134 -59 -90 -41 -120 -46 -165 -29 -24 9 -26 13 -13 25 12 12 325 164 340
165 3 0 13 -8 21 -17z m230 -139 c105 -53 111 -57 93 -71 -41 -31 -218 -114
-231 -109 -18 7 -18 51 1 149 8 43 15 81 15 83 0 8 13 3 122 -52z m-222 -63
c0 -54 3 -113 6 -130 5 -21 3 -31 -6 -31 -18 0 -260 132 -260 142 0 4 17 15
38 23 20 9 75 33 122 55 47 22 88 40 93 40 4 0 7 -44 7 -99z m-409 20 c13 -10
92 -53 174 -94 83 -42 168 -87 190 -101 35 -22 37 -25 17 -26 -13 0 -104 38
-201 85 -98 47 -192 88 -209 91 -34 7 -42 30 -20 52 16 16 21 15 49 -7z m-88
-53 c17 -27 -6 -44 -151 -114 -139 -66 -174 -74 -208 -50 -15 12 -17 17 -6 28
17 18 324 157 341 155 8 -1 19 -9 24 -19z m957 -36 c0 -18 -39 -41 -150 -92
-136 -61 -168 -72 -175 -59 -6 8 287 157 313 158 6 1 12 -3 12 -7z m-710 -83
l165 -81 -28 -22 -29 -23 24 -7 c20 -6 9 -13 -69 -52 -51 -24 -93 -49 -93 -54
0 -14 67 13 165 64 86 45 115 55 115 37 0 -5 -17 -23 -37 -40 -26 -20 -33 -30
-21 -31 9 0 19 -8 21 -17 4 -14 5 -13 6 4 1 25 45 43 62 26 5 -5 8 -62 7 -129
l-3 -119 -32 1 c-37 2 -259 125 -256 142 2 6 -3 9 -11 6 -16 -6 -123 33 -132
48 -4 6 -6 57 -5 114 1 66 -2 105 -9 109 -8 5 -10 -21 -8 -93 3 -98 -3 -125
-22 -106 -11 11 -17 274 -7 292 5 6 14 12 20 12 7 0 86 -37 177 -81z m1054
-77 c5 -8 -239 -142 -258 -142 -3 0 -6 4 -6 9 0 6 30 24 68 41 153 72 176 84
165 87 -6 2 -52 -16 -102 -41 -50 -26 -95 -46 -100 -46 -9 0 -16 44 -25 167
l-4 62 128 -64 c71 -35 131 -68 134 -73z m-336 -21 c3 -154 0 -159 -82 -119
-51 26 -184 126 -185 141 -1 4 5 7 12 8 6 0 62 24 122 54 61 29 115 52 120 51
6 -2 11 -57 13 -135z m-958 6 l0 -89 -25 5 c-25 4 -25 4 -9 -14 16 -18 16 -19
-8 -19 -14 0 -61 26 -111 62 -86 62 -106 83 -48 54 40 -21 48 -20 28 2 -10 10
-14 22 -10 25 3 4 -2 7 -13 7 -22 1 31 31 116 67 51 21 56 21 68 6 7 -11 12
-50 12 -106z m-232 -58 c127 -65 171 -99 127 -99 -8 0 -82 34 -166 75 -88 44
-159 73 -169 70 -9 -3 -23 2 -30 10 -11 13 -9 20 10 40 l23 24 31 -23 c17 -13
95 -56 174 -97z m1727 71 c3 -5 18 -10 32 -10 25 0 183 -71 351 -157 46 -24
88 -41 93 -37 5 3 9 2 9 -3 0 -4 3 -18 6 -30 5 -16 2 -23 -9 -23 -8 0 -106
-45 -217 -100 -111 -55 -211 -100 -221 -100 -52 0 -2 36 176 124 107 54 198
102 201 108 4 6 -12 7 -47 3 -47 -6 -60 -3 -104 21 -27 15 -88 47 -135 71
-158 80 -177 94 -164 127 7 18 20 21 29 6z m-2020 -30 c4 -6 1 -18 -7 -27 -16
-20 -304 -163 -327 -163 -9 0 -25 7 -36 15 -17 13 -17 17 -5 29 25 24 313 155
342 155 15 1 30 -4 33 -9z m1264 -66 c69 -37 135 -72 145 -80 18 -12 18 -14 2
-20 -10 -4 -34 -2 -54 4 -48 15 -254 133 -260 150 -9 27 47 9 167 -54z m571
45 c-26 -22 -242 -129 -249 -124 -9 9 17 30 68 52 31 14 88 40 126 59 81 39
89 41 55 13z m-1578 -88 c133 -63 168 -91 168 -135 0 -47 10 -51 43 -15 15 17
31 28 35 23 4 -5 5 -88 2 -184 -5 -172 -5 -175 -28 -178 l-22 -3 6 128 c5 125
-1 163 -25 149 -7 -5 -11 -47 -11 -116 0 -60 -4 -111 -8 -114 -5 -3 -33 8 -63
24 -30 17 -98 53 -151 81 -147 78 -138 63 -138 239 0 124 2 148 14 144 8 -3
17 0 21 6 10 16 34 8 157 -49z m1657 45 c-10 -9 -298 -136 -309 -136 -51 0
138 101 235 126 51 13 82 17 74 10z m-686 -89 l79 -57 -103 -50 c-56 -27 -108
-50 -116 -50 -10 0 -13 25 -13 113 0 63 3 116 6 120 11 11 66 -18 147 -76z
m843 49 c16 -13 19 -27 19 -113 1 -103 -6 -133 -30 -133 -29 0 -37 37 -24 120
6 44 9 93 7 110 -5 34 0 36 28 16z m-128 -135 c-3 -143 -11 -171 -48 -171 -9
0 -24 -8 -34 -19 -9 -10 -36 -27 -59 -37 -23 -10 -81 -40 -129 -67 -49 -26
-92 -45 -98 -42 -6 4 -10 60 -10 135 0 119 -8 156 -28 136 -3 -4 -5 -53 -4
-109 2 -109 -9 -161 -35 -171 -17 -7 -39 3 -183 83 -135 75 -134 74 -64 109
33 16 88 42 124 56 36 15 74 32 85 38 31 18 137 48 169 48 16 0 42 11 60 27
32 27 220 121 245 122 11 1 13 -25 9 -138z m-1973 87 c4 -24 5 -65 3 -93 -3
-46 -5 -50 -31 -53 l-28 -3 26 -26 c14 -14 23 -28 21 -30 -8 -8 -131 66 -157
93 l-24 27 33 -17 c41 -21 52 -15 16 8 -20 14 -24 23 -19 43 l6 25 -35 -21
c-21 -13 -37 -18 -41 -12 -9 16 163 98 212 100 6 1 15 -18 18 -41z m2258 -26
c48 -23 87 -46 87 -50 0 -10 -169 -92 -188 -92 -9 0 -12 25 -12 88 0 82 5 107
19 100 3 -2 45 -22 94 -46z m-793 -57 c6 -8 9 -18 6 -23 -9 -15 -238 -129
-274 -136 -42 -10 -72 1 -72 24 0 14 32 35 133 84 133 65 185 78 207 51z
m-596 -58 c66 -34 121 -67 124 -74 8 -25 -50 -27 -93 -3 -22 12 -77 43 -122
67 -80 43 -91 52 -76 66 15 16 55 3 167 -56z m-1334 40 c0 -8 -10 -23 -22 -34
-27 -25 -233 -121 -297 -138 l-46 -13 65 -28 c36 -15 115 -53 175 -84 85 -43
111 -61 113 -78 2 -12 -1 -22 -7 -22 -6 0 -87 38 -179 84 -92 46 -184 89 -204
95 -21 7 -38 16 -38 20 0 15 25 31 49 31 15 0 105 40 201 89 96 49 178 89 183
90 4 0 7 -5 7 -12z m303 -56 c118 -62 155 -86 145 -96 -9 -9 -291 137 -296
154 -6 20 27 7 151 -58z m2882 30 c33 -16 107 -51 163 -77 113 -53 129 -66
110 -82 -36 -29 -62 -23 -203 48 -152 78 -175 94 -175 122 0 27 35 23 105 -11z
m-1970 -58 c120 -60 145 -78 130 -92 -16 -14 -247 -129 -276 -136 l-26 -6 -7
95 c-3 52 -3 120 0 150 7 55 7 55 38 50 17 -3 81 -30 141 -61z m-1147 -114
c-4 -183 -22 -191 -25 -11 -2 139 2 181 18 165 6 -6 8 -70 7 -154z m155 106
c137 -67 145 -74 154 -115 6 -30 4 -33 -15 -28 -26 7 -28 0 -5 -17 24 -18 10
-32 -80 -76 -45 -22 -86 -45 -92 -50 -13 -13 60 13 113 40 65 33 66 32 58 -66
-4 -48 -9 -89 -11 -91 -5 -6 -175 89 -175 98 0 5 -12 10 -27 12 -19 2 -29 10
-34 28 -9 31 -11 320 -3 320 3 0 56 -25 117 -55z m2749 -27 c8 -138 4 -256
-10 -270 -10 -10 -45 4 -180 72 -99 51 -168 92 -170 101 -2 11 13 23 50 38 29
12 107 48 173 81 66 32 123 59 126 59 3 1 8 -36 11 -81z m94 6 c6 -33 1 -180
-6 -203 -3 -7 0 -15 6 -18 17 -6 24 32 24 135 0 70 3 94 14 98 13 5 66 -25
180 -101 25 -16 45 -32 45 -35 1 -7 -203 -105 -255 -124 -23 -8 -46 -11 -52
-7 -8 4 -11 54 -11 146 l1 140 24 0 c19 0 25 -7 30 -31z m-3116 -94 c0 -49 -4
-80 -10 -80 -14 0 -130 82 -130 91 0 4 7 10 16 13 9 4 15 9 12 11 -3 3 -21 -2
-41 -10 -44 -18 -55 -19 -39 -3 11 11 145 53 180 57 9 1 12 -21 12 -79z m1539
-6 c12 -15 21 -35 21 -45 0 -10 4 -20 9 -24 11 -6 51 42 51 62 0 7 11 19 25
25 22 10 37 6 118 -35 122 -61 180 -98 205 -134 l21 -30 -94 -52 c-51 -29
-149 -77 -216 -108 -119 -54 -123 -55 -150 -39 -15 9 -31 16 -37 16 -5 0 -98
46 -207 101 l-198 102 189 93 c104 51 201 93 216 93 17 1 34 -8 47 -25z m2026
10 c23 -23 14 -36 -36 -55 -24 -8 -129 -55 -232 -104 -103 -48 -191 -85 -194
-82 -3 4 -3 12 0 20 7 18 330 177 374 184 24 4 37 13 44 29 10 28 22 30 44 8z
m-2747 -72 c145 -72 160 -83 138 -101 -11 -10 -43 3 -159 64 -79 41 -152 84
-162 95 -18 20 -18 20 16 14 19 -3 94 -36 167 -72z m3197 -132 c10 -16 -14
-40 -39 -40 -25 0 -331 151 -355 174 -11 12 -12 20 -3 40 l11 24 189 -93 c105
-52 193 -99 197 -105z m-4410 140 c-16 -4 -52 -21 -80 -38 -57 -35 -184 -91
-265 -116 -98 -31 -108 -37 -119 -68 -7 -19 -11 -123 -11 -256 0 -219 0 -224
20 -219 29 7 25 2 -16 -23 l-37 -21 7 47 c3 26 6 149 6 274 l0 227 38 25 c20
13 55 29 77 36 22 7 110 47 195 90 152 77 156 78 185 63 l30 -15 -30 -6z
m3135 -32 c58 -31 131 -69 163 -84 56 -28 79 -52 35 -38 -91 28 -338 163 -338
184 0 12 15 6 140 -62z m-260 46 c0 -8 -5 -24 -10 -34 -9 -17 -5 -22 25 -34
l36 -15 -3 -108 -3 -108 -42 1 c-30 0 -43 -3 -43 -13 0 -21 -17 -16 -99 29
-95 51 -111 65 -111 95 0 21 -4 23 -47 23 -44 0 -46 1 -31 16 19 19 297 163
316 164 6 0 12 -7 12 -16z m-1740 -79 c83 -41 150 -79 150 -83 0 -12 -267
-140 -307 -148 -30 -6 -32 -4 -38 30 -9 45 -2 247 8 264 5 6 15 12 23 12 8 0
82 -34 164 -75z m-232 -76 c3 -137 -1 -169 -23 -169 -26 0 -39 44 -43 156 -4
108 -4 112 19 128 13 9 28 15 34 13 6 -2 11 -55 13 -128z m-731 87 c91 -39
210 -98 237 -118 34 -26 1 -55 -152 -130 l-143 -71 -25 24 c-26 24 -26 25 -22
156 2 73 7 135 11 139 3 4 12 2 19 -3 23 -19 270 -153 287 -155 9 -2 16 4 16
12 0 9 -57 43 -152 90 -138 68 -177 90 -161 90 4 0 42 -15 85 -34z m2844 13
c7 -15 10 -67 8 -153 -3 -111 -2 -131 11 -131 12 0 16 20 22 94 6 96 16 161
23 161 9 0 171 -84 228 -117 73 -44 76 -66 10 -94 -27 -10 -83 -37 -125 -59
-81 -42 -122 -49 -166 -26 -57 30 -61 40 -63 188 -1 74 1 141 5 147 11 18 34
13 47 -10z m-2991 -140 c0 -100 -3 -130 -12 -127 -9 3 -14 39 -15 124 -3 125
0 149 17 139 6 -4 10 -60 10 -136z m3890 -3 c0 -250 -8 -255 -214 -153 -83 41
-161 77 -173 81 -43 13 -19 36 36 36 17 0 37 10 52 26 20 22 266 151 292 153
4 1 7 -64 7 -143z m235 -57 c-63 -33 -120 -57 -125 -54 -6 4 -10 57 -10 124
l0 118 125 -64 126 -64 -116 -60z m-4211 68 c-4 -45 -10 -86 -14 -90 -6 -7
-152 62 -173 82 -4 4 -1 13 7 20 24 20 169 80 178 75 5 -3 5 -42 2 -87z m755
-48 c42 -22 92 -53 111 -69 30 -26 32 -29 14 -30 -11 0 -41 11 -65 25 -24 13
-79 43 -121 65 -43 22 -78 44 -78 48 0 29 25 22 139 -39z m692 26 c16 -9 60
-19 97 -24 56 -7 69 -5 79 8 11 14 25 9 129 -43 114 -59 200 -113 191 -122 -2
-2 -21 3 -42 12 -37 15 -38 15 -81 -16 -56 -40 -333 -175 -341 -166 -4 4 -7
76 -7 160 -1 85 -4 157 -8 161 -21 22 -28 -16 -28 -160 0 -86 -4 -156 -9 -160
-6 -3 -34 10 -63 28 -29 19 -81 49 -116 66 -72 36 -168 96 -177 110 -3 6 9 18
27 27 66 34 293 134 306 134 7 0 26 -7 43 -15z m1049 -15 c-6 -11 -26 -32 -45
-47 -34 -27 -35 -30 -35 -98 0 -115 -10 -175 -29 -175 -21 0 -311 150 -311
160 0 11 63 46 209 114 105 50 129 57 162 52 21 -3 40 -2 44 4 11 18 16 10 5
-10z m-2605 -40 c44 -21 89 -48 100 -61 20 -22 20 -22 0 -11 -11 6 -67 34
-125 62 -58 28 -107 54 -110 57 -13 14 63 -12 135 -47z m2788 4 c117 -59 207
-113 207 -125 0 -5 -10 -9 -22 -9 -20 0 -20 -1 -4 -13 15 -11 6 -19 -81 -69
-132 -75 -194 -101 -207 -88 -12 12 -15 243 -3 272 5 16 21 10 132 -44 69 -34
127 -59 130 -56 3 3 -43 29 -102 58 -128 64 -163 86 -163 106 0 21 13 18 113
-32z m1695 34 c-6 -17 -316 -174 -325 -165 -15 16 48 58 172 116 133 62 160
70 153 49z m-3684 -63 c61 -31 122 -65 136 -76 l25 -19 -30 -25 c-28 -23 -247
-135 -265 -135 -4 0 -10 9 -13 19 -6 23 2 189 10 211 3 8 5 30 4 48 -2 20 2
32 10 32 7 0 63 -25 123 -55z m-830 -23 c117 -60 161 -93 124 -91 -23 1 -272
133 -276 147 -7 22 21 12 152 -56z m2664 -117 c0 -73 -3 -138 -7 -144 -4 -5
-22 -12 -41 -13 l-35 -3 -3 130 c-1 72 0 139 2 150 3 12 18 26 33 31 45 17 51
-1 51 -151z m-2028 25 c0 -71 -4 -130 -8 -130 -5 0 -33 15 -63 33 -30 18 -74
43 -99 56 -96 49 -96 49 32 112 62 31 119 57 126 57 9 2 12 -30 12 -128z
m3240 24 c50 -24 90 -48 90 -53 0 -9 -148 -71 -167 -71 -4 0 -8 34 -8 77 0 49
-4 78 -12 80 -16 6 -24 -26 -25 -105 0 -39 -3 -74 -7 -79 -9 -15 -48 -33 -55
-26 -8 8 -8 268 0 276 4 3 26 -7 51 -24 24 -17 84 -50 133 -75z m-263 -56 c2
-76 -1 -138 -5 -138 -4 0 -37 17 -73 39 -37 21 -99 56 -138 77 -39 21 -71 41
-71 44 1 12 237 119 260 117 l25 -2 2 -137z m-3649 23 c53 -28 109 -54 125
-60 17 -7 27 -18 27 -30 0 -11 5 -23 10 -26 17 -10 11 -23 -12 -31 -13 -4 -91
-38 -175 -75 -155 -71 -191 -83 -138 -50 39 24 103 82 90 80 -33 -4 -35 1 -35
121 0 66 3 120 6 120 3 0 49 -22 102 -49z m4570 -126 c-2 -79 -6 -145 -9 -145
-3 0 -72 32 -152 70 -80 39 -148 70 -151 70 -36 0 80 -73 251 -159 96 -48 129
-71 102 -71 -6 0 -76 -32 -155 -72 -79 -39 -146 -69 -149 -66 -3 3 -1 16 4 29
5 14 12 64 16 112 5 60 11 87 20 87 7 0 51 -20 98 -45 79 -42 127 -56 127 -37
0 4 -75 45 -168 92 -168 86 -188 102 -160 135 25 30 34 36 173 104 108 52 142
65 148 55 4 -7 6 -79 5 -159z m-4122 109 c45 -18 168 -104 161 -111 -5 -5
-237 115 -237 123 0 9 40 3 76 -12z m977 -70 c81 -41 147 -78 147 -83 0 -5 -6
-14 -14 -21 -12 -9 -13 -17 -4 -36 6 -13 9 -26 7 -28 -12 -11 -333 -166 -345
-166 -42 0 6 44 77 71 29 11 64 29 78 38 14 10 54 33 89 50 34 17 62 33 62 36
0 2 -75 -32 -167 -76 -125 -60 -168 -76 -175 -67 -9 15 -11 259 -2 282 4 9 18
16 34 16 27 0 28 2 23 36 -6 35 -5 36 18 29 13 -4 90 -41 172 -81z m637 61 c0
-16 -292 -161 -346 -171 -41 -8 -45 7 -7 31 45 30 317 155 336 155 9 0 17 -7
17 -15z m-1587 -72 c97 -50 126 -68 109 -71 -12 -2 -43 9 -69 23 -25 15 -81
45 -124 66 -44 22 -79 41 -79 44 0 15 44 -2 163 -62z m1908 14 c155 -79 191
-105 183 -131 -10 -31 -12 -31 -42 -9 -16 12 -69 41 -119 66 -97 49 -153 90
-153 113 0 23 22 17 131 -39z m737 35 c2 -8 -22 -24 -65 -43 -37 -16 -107 -50
-155 -75 -63 -32 -97 -44 -120 -42 -18 2 -33 8 -32 13 1 13 98 62 234 120 108
45 130 49 138 27z m-1990 -6 c15 -9 17 -322 2 -331 -5 -3 -19 4 -31 16 -12 12
-39 26 -59 30 -53 12 -311 149 -303 162 3 5 65 38 137 72 118 57 137 63 187
61 30 -2 61 -6 67 -10z m2132 -1 c15 -18 6 -45 -14 -45 -11 0 -10 -8 6 -37 17
-33 19 -51 14 -128 -5 -75 -9 -93 -27 -107 -12 -10 -25 -18 -30 -18 -12 0 -11
292 1 324 11 29 31 34 50 11z m199 -41 c58 -31 118 -64 133 -75 l27 -20 -87
-46 c-129 -68 -194 -100 -219 -108 l-23 -6 0 143 c0 197 3 200 169 112z
m-1337 -5 c-1 -24 -3 -104 -3 -176 0 -85 -4 -133 -10 -133 -14 0 -234 117
-287 153 -36 24 -41 31 -31 44 17 19 310 164 324 160 5 -2 9 -24 7 -48z m1976
45 c13 -4 21 -12 19 -18 -2 -6 3 -16 12 -23 14 -11 14 -14 -4 -32 -11 -11 -80
-45 -153 -76 l-133 -57 -36 38 -36 38 84 40 c102 47 212 95 219 96 3 0 15 -3
28 -6z m-3692 -74 c183 -94 217 -119 181 -133 -19 -7 -371 170 -375 188 -7 33
59 14 194 -55z m1922 -24 c64 -35 143 -76 175 -91 31 -15 57 -31 57 -35 0 -4
-8 -14 -17 -22 -27 -24 -330 -168 -352 -168 -15 0 -23 10 -30 38 -12 47 -24
328 -15 343 11 19 60 2 182 -65z m832 -88 c0 -168 -15 -195 -83 -144 -18 13
-80 49 -139 81 -60 32 -108 61 -108 65 0 3 61 36 135 72 124 61 137 65 165 55
l30 -11 0 -118z m1008 57 c7 -16 12 -81 12 -168 0 -122 -3 -147 -19 -177 -11
-19 -25 -47 -31 -62 -9 -20 -30 -34 -88 -58 -41 -18 -105 -47 -140 -66 -35
-19 -68 -32 -73 -28 -10 6 -12 375 -3 412 5 16 29 33 87 60 45 20 115 54 157
74 41 20 78 37 81 37 3 1 11 -10 17 -24z m-3733 -56 c77 -39 146 -76 153 -81
9 -8 12 -64 12 -220 0 -115 -3 -208 -7 -206 -83 37 -258 136 -272 154 -11 14
-22 44 -25 67 -8 58 -13 357 -7 357 3 0 68 -32 146 -71z m3847 -112 c-4 -127
-13 -157 -38 -123 -15 21 -20 175 -7 249 l6 39 21 -22 c19 -19 21 -30 18 -143z
m-4152 8 c0 -80 -3 -145 -6 -145 -8 0 -203 109 -242 135 l-33 23 34 21 c48 29
219 111 235 111 9 0 12 -36 12 -145z m61 103 c4 -181 3 -218 -6 -218 -6 0 -11
52 -13 130 -2 84 1 130 8 130 5 0 10 -19 11 -42z m61 -60 c5 -197 2 -225 -19
-204 -9 9 -14 215 -7 269 11 71 24 37 26 -65z m1632 -25 c151 -83 246 -142
246 -154 0 -16 -124 38 -273 120 -165 90 -207 119 -207 138 0 17 75 -16 234
-104z m-834 -78 c18 -13 27 -26 21 -30 -6 -3 -26 5 -43 19 -18 13 -82 50 -143
81 -60 32 -119 66 -130 77 -23 23 247 -111 295 -147z m2630 109 c0 -41 -9 -47
-176 -125 -182 -84 -190 -86 -218 -57 -12 14 -31 30 -41 36 -11 6 -18 12 -15
15 25 20 342 160 372 164 21 3 41 10 44 15 11 18 34 -15 34 -48z m-785 -30
c157 -83 170 -93 162 -126 -5 -20 -21 -33 -59 -50 -29 -13 -94 -44 -145 -70
-51 -27 -100 -48 -109 -48 -14 0 -15 16 -12 129 3 118 -2 154 -18 138 -15 -15
-21 -85 -13 -145 13 -90 5 -126 -34 -156 -18 -13 -41 -27 -53 -30 -34 -10 -64
-106 -33 -106 7 0 9 10 5 26 -9 34 17 74 47 74 12 0 33 -12 46 -25 30 -32 37
-31 44 3 3 16 14 38 24 49 20 25 237 124 256 118 6 -2 25 -6 40 -10 22 -4 28
-11 25 -28 -2 -17 -30 -36 -128 -84 -69 -35 -145 -70 -170 -80 -25 -9 -55 -24
-67 -34 -13 -9 -68 -36 -123 -59 -55 -23 -100 -46 -100 -52 0 -15 88 2 147 29
43 20 57 22 68 13 18 -15 19 -55 4 -99 -12 -34 -15 -35 -74 -21 -22 5 -59 7
-83 4 -69 -10 -34 -28 66 -34 l87 -5 -1 -75 c0 -41 -4 -100 -9 -131 -7 -50
-11 -57 -39 -69 -17 -7 -34 -15 -38 -17 -4 -2 -10 16 -13 42 -4 25 -11 48 -16
50 -15 10 -31 -36 -25 -70 9 -45 27 -57 73 -50 l38 6 -30 -25 c-16 -14 -35
-26 -41 -26 -12 0 -101 -46 -120 -61 -23 -19 -288 -138 -296 -133 -17 11 12
41 51 54 42 14 134 70 115 70 -16 0 -95 -37 -118 -55 -39 -30 -46 -20 -46 68
0 78 -11 120 -26 104 -4 -3 -9 -49 -12 -101 -4 -73 -9 -99 -22 -111 -30 -28
-38 2 -42 155 -3 125 -1 148 15 170 9 13 17 29 17 34 0 16 -41 -28 -82 -87
-40 -58 -45 -85 -10 -54 10 10 22 17 26 17 10 0 3 -187 -8 -197 -4 -4 -26 3
-49 16 -23 13 -69 38 -102 56 -182 97 -199 109 -209 145 -5 19 -11 144 -13
277 l-4 242 25 7 c19 4 53 -8 128 -45 68 -34 121 -54 157 -58 41 -5 52 -3 47
6 -10 15 -52 32 -87 35 -48 4 -178 92 -151 103 8 3 61 30 119 59 59 30 112 53
119 50 7 -3 15 1 17 8 8 20 93 58 119 54 13 -2 28 4 35 12 10 13 16 13 47 -4
44 -23 57 -14 27 17 l-22 24 38 25 c21 14 56 32 78 38 22 7 62 24 90 36 106
50 124 30 119 -131 -4 -110 4 -146 24 -108 6 10 10 78 11 152 0 156 6 167 83
177 33 5 52 13 59 25 5 11 14 19 20 19 5 0 66 -30 134 -66z m-1279 34 c5 -9 9
-285 5 -345 -2 -20 -29 -15 -41 6 -5 11 -10 84 -10 166 0 137 8 185 30 185 5
0 12 -5 16 -12z m-732 -76 c144 -74 181 -102 137 -102 -23 0 -266 114 -293
138 -21 18 -24 42 -5 42 6 -1 79 -35 161 -78z m972 -31 c93 -50 175 -91 181
-91 7 0 13 -7 13 -15 0 -8 8 -15 18 -15 15 -1 15 -2 -3 -16 -40 -31 -320 -165
-357 -170 -21 -4 -38 -5 -39 -3 0 2 -3 96 -6 208 -4 179 -3 203 10 198 8 -3
91 -46 183 -96z m-317 -33 c-1 -62 -4 -125 -8 -140 l-6 -27 -129 67 c-72 38
-131 73 -133 78 -3 10 240 134 264 134 10 0 13 -25 12 -112z m2247 66 c10 -40
-2 -368 -14 -391 -11 -20 -46 -36 -56 -25 -10 9 -6 344 4 386 13 58 54 77 66
30z m-3825 -64 c79 -45 153 -90 164 -101 l20 -20 -26 10 c-81 30 -329 163
-329 176 0 8 6 15 13 15 8 0 79 -36 158 -80z m717 -132 c2 -105 0 -198 -3
-206 -16 -44 -25 28 -25 218 0 163 3 202 13 192 8 -9 13 -68 15 -204z m-918
-61 c4 -185 2 -245 -8 -257 -10 -11 -12 35 -12 237 0 138 -3 260 -6 270 -6 15
-5 16 7 5 11 -10 15 -66 19 -255z m4906 232 c8 -14 -14 -29 -43 -29 -13 0 -23
-5 -23 -10 0 -6 -55 -36 -122 -69 -151 -71 -158 -74 -158 -57 0 22 30 41 175
109 147 70 160 74 171 56z m-3751 -82 c93 -48 121 -68 126 -87 4 -14 7 -112 8
-217 1 -144 -2 -193 -11 -193 -9 0 -9 -3 -1 -11 14 -14 6 -39 -13 -39 -18 0
-212 102 -272 142 -24 17 -39 34 -36 40 4 6 6 72 5 146 -1 75 3 173 10 218 15
97 0 97 184 1z m2750 -168 l0 -244 -115 -57 c-141 -69 -248 -113 -256 -105 -9
9 24 57 39 57 6 1 44 16 82 35 56 28 63 33 35 29 -19 -4 -56 -15 -82 -26 -26
-11 -52 -17 -57 -13 -17 10 -15 410 2 422 6 5 35 19 62 30 28 12 100 44 160
72 61 27 115 49 120 47 6 -2 10 -93 10 -247z m-3549 50 c9 -7 14 -31 14 -64 0
-53 0 -54 -37 -66 -21 -6 -73 -29 -115 -50 -43 -22 -82 -39 -87 -39 -18 0 0
104 20 119 14 10 19 26 19 62 0 28 5 49 11 49 6 0 8 9 4 20 -8 26 -6 26 81
-14 41 -19 74 -31 74 -26 0 5 -47 32 -105 60 -58 27 -105 54 -105 59 0 9 199
-87 226 -110z m1196 70 c94 -47 200 -109 225 -131 l21 -20 -21 -33 c-12 -19
-27 -34 -34 -35 -27 -1 -302 141 -322 166 -27 34 -27 69 0 88 24 17 34 14 131
-35z m3245 -66 c-4 -38 -7 -105 -7 -150 0 -68 -3 -83 -15 -83 -16 0 -202 94
-218 110 -15 13 15 91 42 109 31 20 171 80 190 81 11 0 13 -13 8 -67z m-1291
-7 c3 -19 4 -113 3 -209 -4 -177 -11 -207 -46 -207 -20 0 -15 408 6 433 20 25
29 21 37 -17z m-2142 -2 c23 -23 24 -385 1 -404 -34 -29 -40 2 -40 215 0 212
3 226 39 189z m2022 -55 c-13 -32 -13 -39 5 -78 15 -34 19 -66 19 -156 0 -111
-1 -114 -26 -134 -53 -41 -54 -37 -53 157 2 211 5 234 39 242 14 4 26 6 28 5
1 -1 -4 -17 -12 -36z m-1818 -39 c195 -99 192 -96 195 -200 1 -47 1 -138 0
-202 -3 -101 -5 -118 -19 -118 -29 0 -131 60 -153 91 -25 34 -91 70 -122 66
-18 -1 -25 5 -33 33 -10 38 -21 400 -11 400 4 0 68 -31 143 -70z m2958 35 c3
-14 1 -31 -5 -39 -17 -20 19 -46 155 -114 67 -34 148 -79 179 -101 66 -46 59
-57 -7 -12 -24 16 -54 32 -68 36 -14 4 -73 34 -132 66 -60 31 -110 53 -113 49
-3 -5 -7 -66 -10 -136 -3 -96 -7 -130 -19 -142 -12 -13 -18 -13 -30 -2 -13 10
-16 10 -16 -4 0 -10 -5 -14 -11 -10 -11 6 -4 343 8 392 5 20 30 39 55 41 4 1
10 -10 14 -24z m-3838 -49 c70 -35 136 -71 147 -80 20 -15 20 -15 -1 -16 -25
0 -294 137 -294 151 0 17 19 9 148 -55z m2611 -159 c0 -111 -4 -210 -8 -221
-4 -10 -72 -52 -156 -97 -121 -63 -151 -75 -158 -64 -4 8 -6 105 -5 214 3 182
6 202 23 221 22 25 286 160 298 153 4 -2 7 -95 6 -206z m1061 203 c0 -11 -290
-154 -297 -146 -16 15 18 38 138 94 135 62 159 70 159 52z m-3865 -214 c0 -96
-3 -177 -7 -181 -22 -22 -28 17 -28 175 0 174 4 210 23 191 7 -7 11 -75 12
-185z m173 109 c71 -36 141 -74 156 -86 l26 -20 0 -182 c0 -100 -4 -188 -9
-195 -9 -15 -70 12 -205 90 -113 66 -106 49 -106 268 0 105 2 190 5 190 2 0
63 -29 133 -65z m3728 54 c10 -18 5 -339 -7 -360 -12 -24 -90 -99 -102 -99 -5
0 -54 -23 -109 -51 -55 -27 -107 -48 -114 -45 -19 7 -20 374 -1 398 10 14 300
166 319 167 4 1 10 -4 14 -10z m-3953 -183 c0 -75 -3 -139 -7 -143 -18 -18
-26 32 -26 167 0 132 1 143 16 128 13 -13 16 -41 17 -152z m-81 137 c-5 -10
-6 -27 -1 -38 9 -23 12 -215 3 -215 -3 0 -48 24 -100 53 -94 52 -116 79 -75
92 11 3 25 13 32 21 11 14 7 13 -26 -1 -52 -23 -94 -31 -80 -17 8 9 242 122
253 122 1 0 -1 -8 -6 -17z m4286 -90 c18 -13 53 -31 77 -40 25 -8 45 -19 45
-24 0 -11 -173 -99 -195 -99 -18 0 -19 20 -4 109 18 106 12 102 77 54z m-2803
3 c13 -19 15 -57 13 -232 -2 -125 -7 -209 -13 -209 -5 0 -19 15 -31 33 -22 32
-22 39 -18 225 3 105 8 195 10 199 9 14 23 8 39 -16z m2172 -265 c-6 -196 -9
-228 -24 -238 -23 -18 -27 -9 -9 19 14 21 14 27 2 43 -13 18 -14 18 -20 -3 -4
-12 -12 -20 -17 -17 -11 7 -11 361 0 389 8 21 51 47 65 39 5 -4 7 -98 3 -232z
m-3102 203 c11 -23 13 -380 1 -391 -18 -19 -26 35 -26 197 0 96 -3 186 -7 199
-8 29 17 25 32 -5z m-735 -35 c122 -58 204 -109 192 -121 -7 -7 -46 9 -114 45
-56 30 -125 63 -153 72 -59 22 -70 29 -60 45 9 14 31 7 135 -41z m945 -57
l150 -77 9 -86 c5 -47 6 -103 2 -123 -7 -34 -13 -40 -91 -79 l-85 -41 -75 37
-75 37 0 205 c0 113 3 205 8 205 4 -1 75 -35 157 -78z m2773 -139 l-3 -207
-78 -48 c-43 -26 -84 -48 -90 -48 -7 0 -52 22 -102 48 -87 46 -90 49 -93 85
-4 47 18 58 62 32 121 -71 182 -99 190 -87 3 5 -45 34 -107 65 -126 62 -157
87 -157 122 0 57 17 72 194 159 94 46 174 85 179 85 4 1 6 -92 5 -206z m950
185 c-5 -15 -60 -44 -223 -117 -156 -70 -179 -78 -173 -60 4 15 180 110 293
158 74 32 109 39 103 19z m-4848 -273 c-1 -146 -4 -263 -8 -261 -6 4 -9 513
-3 524 9 18 11 -39 11 -263z m220 181 c142 -73 147 -77 152 -138 3 -29 3 -58
1 -65 -5 -12 -247 -135 -293 -149 -24 -7 -24 -6 5 18 17 14 41 31 54 38 19 9
21 14 10 21 -11 6 -15 41 -17 145 l-2 136 27 -6 28 -7 -31 20 c-18 11 -35 25
-39 31 -9 15 -13 17 105 -44z m4520 -21 c-14 -8 -29 -14 -35 -14 -5 0 1 6 15
14 14 8 30 14 35 14 6 0 -1 -6 -15 -14z m52 -144 c-3 -85 0 -135 7 -150 7 -11
8 -21 3 -21 -16 0 -216 97 -255 124 -21 14 -42 26 -47 26 -15 0 -12 27 6 45
24 24 73 46 108 50 17 2 60 14 96 28 36 14 70 26 75 26 7 1 9 -43 7 -128z
m-1284 42 c4 -36 -25 -143 -38 -143 -12 0 -30 34 -30 55 0 9 9 19 20 22 24 6
25 16 5 33 -16 13 -20 51 -8 64 4 4 16 6 28 4 14 -2 21 -12 23 -35z m-2824
-48 c149 -73 175 -90 160 -105 -7 -7 -28 -1 -65 20 -30 17 -79 42 -109 57 -75
36 -130 71 -130 83 0 16 7 13 144 -55z m3656 31 c0 -13 -58 -45 -110 -61 -14
-4 -32 -13 -40 -21 -24 -20 -131 -67 -138 -60 -17 17 25 46 144 98 71 31 132
57 137 57 4 1 7 -5 7 -13z m-2698 -65 c46 -21 90 -47 99 -57 17 -19 20 -50 23
-216 1 -70 -24 -228 -36 -228 -13 0 -240 121 -274 146 -31 23 -31 23 -38 143
-7 130 -3 147 41 189 13 12 21 27 17 33 -3 6 -1 15 5 19 29 17 84 8 163 -29z
m1563 30 c3 -5 27 -17 54 -26 27 -9 51 -22 54 -29 11 -29 -12 -294 -28 -326
-19 -36 -91 -73 -214 -110 -40 -12 -80 -24 -87 -27 -12 -4 -14 26 -13 173 0
99 4 201 7 227 l7 48 85 39 c86 39 124 48 135 31z m-2497 -85 c127 -65 122
-58 126 -152 l4 -81 -117 -56 c-64 -30 -130 -60 -148 -65 -28 -9 -32 -8 -37
11 -3 12 -6 97 -6 189 l0 167 28 15 c41 23 55 20 150 -28z m3641 29 c16 -8 32
-22 36 -32 11 -27 6 -346 -5 -357 -7 -7 -57 14 -145 59 -73 39 -142 75 -151
82 -22 16 -35 88 -22 124 8 22 32 40 116 83 116 60 129 63 171 41z m158 -11
c-7 -7 -37 7 -37 17 0 6 9 5 21 -1 11 -7 19 -14 16 -16z m-4067 -161 c0 -135
-10 -189 -24 -122 -8 43 -8 274 1 282 16 17 23 -28 23 -160z m2950 138 c5 -11
10 -62 10 -114 0 -81 -3 -99 -22 -127 -26 -38 -43 -47 -51 -28 -2 8 -2 75 1
151 5 135 5 137 28 137 13 0 28 -9 34 -19z m1243 -32 c149 -75 232 -122 220
-126 -11 -4 -320 153 -328 168 -10 15 2 11 108 -42z m-4145 24 c13 -25 13
-291 0 -299 -21 -13 -28 26 -28 169 0 141 7 171 28 130z m890 -113 c-3 -120
-13 -142 -43 -96 -15 22 -15 34 -4 103 26 167 51 163 47 -7z m-1010 -12 c-3
-117 -5 -133 -20 -130 -22 3 -221 125 -225 137 -3 9 214 121 240 124 4 1 6
-59 5 -131z m4116 112 c26 -9 26 -10 26 -127 -1 -139 -11 -191 -42 -216 -28
-23 -36 -6 -14 28 11 17 15 45 14 97 -1 56 -2 62 -5 23 -4 -67 -11 -95 -23
-95 -14 0 -13 226 2 267 7 18 13 33 14 33 2 0 14 -4 28 -10z m-984 -121 c0
-68 -3 -80 -22 -93 -12 -8 -25 -13 -30 -10 -10 6 -11 208 -1 217 3 4 17 -3 30
-15 20 -19 23 -31 23 -99z m-2224 47 c-4 -30 -10 -66 -14 -80 l-7 -26 -50 41
c-28 23 -51 46 -53 53 -3 12 91 64 117 65 10 1 12 -11 7 -53z m751 3 c197
-102 248 -134 251 -160 2 -14 -2 -36 -7 -49 l-10 -25 0 25 c-1 30 -46 61 -206
145 -106 56 -155 89 -155 107 0 17 33 6 127 -43z m2601 21 c37 -17 87 -43 111
-57 l45 -26 -25 -20 -24 -20 25 8 c36 11 44 11 49 0 5 -11 -265 -152 -274
-144 -15 16 15 41 101 84 112 56 119 74 8 21 -95 -45 -104 -45 -104 -3 0 49
12 187 17 187 2 0 34 -14 71 -30z m-2792 -8 c26 -17 32 -55 32 -207 0 -169 -9
-210 -46 -203 -15 3 -17 24 -17 211 -1 203 2 219 31 199z m1100 -29 c4 -20 4
-109 1 -197 l-6 -161 -31 -27 c-38 -35 -48 -35 -60 -2 -13 33 -13 355 -1 388
10 24 26 33 68 35 18 1 23 -6 29 -36z m687 -20 c62 -43 67 -48 50 -60 -17 -13
-135 -53 -155 -53 -6 0 -4 7 3 17 9 10 14 39 13 80 -1 41 2 63 10 63 6 0 41
-21 79 -47z m-1640 -29 c143 -72 249 -136 240 -145 -25 -25 -250 -137 -290
-145 l-33 -6 0 166 c0 91 2 166 5 166 3 0 38 -16 78 -36z m812 -11 c3 -20 3
-101 -1 -180 l-7 -143 -51 30 c-28 17 -102 57 -163 91 -62 33 -115 64 -118 69
-6 9 297 168 321 169 7 1 15 -15 19 -36z m2143 -14 c-3 -33 -7 -36 -200 -134
-108 -55 -199 -97 -202 -94 -15 14 10 40 62 66 121 58 317 165 323 175 4 6 5
18 2 27 -5 12 -3 13 6 5 7 -6 11 -27 9 -45z m-4711 -39 c126 -69 200 -120 176
-120 -10 0 -329 154 -364 176 -5 3 -6 10 -3 16 12 18 61 0 191 -72z m948 44
c30 -15 69 -40 87 -55 28 -24 30 -28 13 -29 -22 0 -205 91 -205 103 0 15 54 6
105 -19z m-141 -23 c11 -18 -29 -52 -69 -58 -22 -3 -43 -11 -47 -17 -4 -6 -4
-67 -1 -137 6 -129 0 -190 -18 -172 -6 6 -8 75 -7 169 l3 159 60 32 c66 36 71
37 79 24z m2746 -36 c23 -24 47 -38 72 -42 48 -7 51 -19 45 -160 -5 -123 -26
-206 -51 -211 -9 -2 -47 16 -83 40 -37 23 -101 61 -142 83 -66 36 -78 46 -89
80 -16 46 -11 117 9 142 12 14 183 103 199 103 3 0 21 -16 40 -35z m-2580 -37
c96 -53 89 -33 89 -269 0 -115 -4 -211 -9 -214 -5 -3 -44 15 -87 40 -68 39
-143 71 -143 60 0 -2 42 -26 93 -54 52 -27 108 -63 125 -79 75 -71 8 -85 -103
-22 -87 49 -74 51 34 4 84 -36 116 -38 71 -4 -14 11 -77 47 -141 80 -172 91
-167 83 -171 269 -2 129 -1 155 12 159 8 3 35 24 60 48 45 42 45 42 80 28 19
-8 60 -29 90 -46z m2996 -29 c66 -33 134 -71 150 -84 28 -22 28 -24 12 -42
-18 -20 -305 -159 -313 -152 -2 3 1 38 7 79 5 41 7 101 4 133 -3 31 -3 57 0
57 3 0 49 -25 102 -56 68 -40 111 -58 143 -62 59 -6 72 12 22 28 -53 17 -283
140 -283 151 0 20 40 7 156 -52z m-3941 -22 c115 -60 120 -64 117 -92 -5 -35
-15 -44 -95 -74 -34 -14 -57 -26 -51 -28 7 -2 37 7 68 21 31 14 73 28 94 32
33 6 36 5 22 -9 -13 -14 -226 -115 -320 -153 -34 -13 -35 -13 -10 4 49 34 85
73 73 79 -9 3 -13 33 -14 96 0 51 -4 113 -8 140 -4 26 -5 47 -2 46 3 0 60 -28
126 -62z m586 -240 c-11 -11 -285 134 -280 148 2 6 66 40 144 78 l140 67 3
-142 c1 -78 -2 -146 -7 -151z m3142 251 c3 -18 3 -85 -1 -148 -6 -93 -10 -115
-22 -115 -12 0 -15 23 -18 134 -2 90 1 138 9 147 18 22 26 17 32 -18z m-2393
-84 c173 -88 189 -99 175 -113 -8 -7 -27 -2 -65 19 -30 17 -95 51 -145 76 -91
47 -125 70 -125 86 0 14 7 11 160 -68z m907 32 c37 -24 109 -64 158 -89 50
-25 99 -52 110 -61 20 -16 20 -16 -5 -37 -14 -12 -83 -50 -154 -86 -70 -35
-126 -66 -123 -69 3 -3 69 27 147 66 78 39 144 69 147 66 3 -3 3 -11 0 -18 -6
-16 -308 -158 -336 -158 -16 0 -21 7 -22 28 0 15 -2 97 -5 182 -4 141 0 220
11 220 2 0 35 -20 72 -44z m-119 -163 c-2 -147 -6 -197 -16 -201 -27 -9 -42
63 -42 207 0 152 8 191 40 191 20 0 20 -4 18 -197z m912 183 c0 -13 -49 -56
-64 -56 -4 0 -57 -25 -119 -55 -110 -54 -137 -63 -137 -47 0 18 38 41 160 97
69 32 129 62 135 66 14 13 25 11 25 -5z m208 -233 c-2 -137 -8 -256 -12 -265
-10 -22 -32 -23 -40 -2 -3 9 -6 123 -6 254 0 217 2 240 18 249 44 26 44 25 40
-236z m-2119 194 c4 -12 6 -94 5 -182 -3 -262 -2 -247 -21 -243 -35 7 -41 45
-35 260 4 201 5 207 24 197 10 -6 22 -20 27 -32z m885 24 c16 -17 17 -40 14
-208 l-3 -190 -45 32 c-25 18 -95 59 -157 91 -139 71 -168 93 -159 120 4 13
57 44 163 96 87 42 161 77 164 77 3 1 14 -8 23 -18z m2531 -151 c0 -152 16
-146 -150 -61 -65 33 -111 63 -113 73 -2 12 14 24 59 44 61 28 174 70 194 73
6 0 10 -48 10 -129z m-3206 34 c80 -42 151 -81 158 -87 15 -15 27 -353 16
-450 l-8 -69 -132 69 c-73 38 -145 78 -160 90 -48 35 -17 37 54 2 126 -60 147
-70 139 -62 -4 4 -56 33 -114 63 -82 43 -108 61 -113 80 -13 47 -10 440 3 440
6 0 77 -34 157 -76z m1713 54 c7 -21 -8 -431 -17 -451 -4 -10 -24 -29 -44 -43
l-36 -25 44 7 c32 5 42 4 37 -4 -8 -14 -286 -152 -304 -152 -8 0 -13 19 -14
53 -3 99 3 442 8 460 5 16 282 165 310 166 7 1 14 -5 16 -11z m73 -23 c25 -24
25 -27 25 -195 0 -157 -2 -172 -20 -190 -11 -11 -27 -20 -35 -20 -13 0 -15 31
-15 215 0 143 4 215 10 215 6 0 22 -11 35 -25z m-2691 -86 c86 -45 153 -86
150 -90 -9 -16 -29 -10 -80 23 -27 18 -82 47 -123 65 -73 33 -111 58 -111 75
0 4 2 8 5 8 2 0 74 -37 159 -81z m3695 10 c6 -19 11 -104 11 -200 l0 -168 -30
-16 c-43 -22 -64 -19 -122 19 -29 18 -81 47 -115 65 -34 17 -67 40 -73 50 -17
33 -12 116 8 133 24 22 273 147 294 147 9 1 21 -12 27 -30z m102 -145 c-1
-166 -6 -194 -37 -194 -11 0 -14 23 -13 113 1 149 7 197 25 190 10 -4 14 4 14
33 0 20 3 35 6 31 4 -3 6 -81 5 -173z m-3997 139 c7 -42 2 -270 -7 -279 -7 -7
-19 5 -52 51 -16 22 -25 198 -12 211 4 4 14 -1 22 -12 14 -19 14 -18 15 3 0
53 25 71 34 26z m3284 -100 c17 -13 32 -28 32 -32 0 -4 -18 -16 -40 -26 -49
-22 -71 -45 -44 -45 38 0 -5 -23 -78 -40 -40 -10 -81 -21 -90 -25 -16 -6 -18
1 -20 76 -4 118 -2 185 6 204 5 14 20 9 103 -36 54 -28 113 -63 131 -76z
m-3103 31 c28 -18 63 -44 79 -58 l30 -25 -118 -57 c-97 -48 -119 -55 -127 -43
-10 16 -13 242 -3 252 8 7 71 -24 139 -69z m-296 -74 c-2 -66 -4 -120 -6 -120
-11 0 -213 113 -223 125 -9 11 7 23 92 64 57 27 111 50 121 50 17 1 18 -9 16
-119z m4241 74 c30 -20 62 -38 71 -39 24 -5 97 -43 104 -55 13 -20 -26 -22
-48 -2 -12 11 -64 41 -114 66 -51 25 -93 51 -93 56 0 18 25 10 80 -26z m-2635
1 c22 -13 73 -41 114 -62 83 -43 165 -109 121 -97 -14 3 -43 16 -65 29 -22 12
-80 44 -130 70 -103 55 -110 59 -101 74 10 15 16 14 61 -14z m955 -163 c0 -92
-3 -198 -7 -235 -6 -66 -7 -68 -41 -82 -19 -8 -38 -12 -43 -9 -15 9 -11 437 4
456 15 20 69 48 79 41 5 -2 8 -79 8 -171z m-1071 115 c5 -12 5 -112 2 -222 -5
-179 -8 -200 -23 -203 -29 -6 -40 43 -34 143 3 50 6 143 7 207 1 114 1 117 20
107 11 -5 24 -20 28 -32z m2767 -22 c45 -25 90 -45 100 -45 16 0 16 -2 4 -14
-17 -17 -214 -116 -230 -116 -13 0 -13 1 6 40 13 25 15 47 10 97 -7 65 -3 83
16 83 6 0 48 -20 94 -45z m-1830 -10 c7 -40 -3 -422 -12 -436 -7 -11 -339
-179 -354 -179 -6 0 -10 54 -10 146 0 141 1 147 25 175 30 36 41 91 28 140
l-10 37 156 76 c86 42 159 76 163 76 4 0 10 -16 14 -35z m-777 -27 c53 -28
120 -66 149 -85 29 -18 58 -33 64 -33 6 0 20 -7 30 -17 23 -21 25 -118 3 -150
-17 -24 -210 -125 -293 -153 -61 -20 -56 -25 -71 77 -12 79 -15 396 -4 406 12
12 25 7 122 -45z m-1906 1 c81 -41 236 -130 245 -142 13 -15 27 -87 17 -87 -4
0 -62 28 -129 61 -151 77 -216 123 -216 153 0 43 20 46 83 15z m721 3 c7 -12
11 -320 4 -328 -4 -3 -26 5 -50 19 -24 13 -70 39 -103 57 -94 49 -156 94 -153
109 3 14 260 151 284 151 7 0 15 -3 18 -8z m212 -37 c27 -19 44 -35 39 -35
-12 0 -115 58 -115 65 0 14 32 1 76 -30z m-127 1 c14 -17 16 -48 13 -223 -2
-132 -10 -158 -30 -105 -9 22 -18 252 -13 325 1 21 14 22 30 3z m3052 -28 c12
-22 14 -283 2 -313 -11 -29 -38 -12 -37 23 0 17 1 95 2 172 2 138 9 163 33
118z m-134 -18 c5 0 20 -11 32 -24 21 -23 23 -32 22 -160 -1 -75 -4 -142 -7
-149 -4 -11 -292 -153 -411 -204 l-33 -13 0 204 c0 177 2 205 16 210 43 16 44
13 44 -138 0 -79 -5 -157 -11 -175 -14 -38 -5 -51 18 -28 13 13 19 41 23 105
5 80 7 87 25 84 18 -4 18 -2 -3 15 -29 23 -44 132 -21 159 7 9 69 44 138 79
110 55 128 61 142 49 8 -8 20 -14 26 -14z m1001 19 c31 -11 49 -36 34 -51 -10
-10 -371 -188 -382 -188 -10 0 -1 67 12 93 7 14 219 125 288 150 8 3 15 6 16
6 1 1 15 -4 32 -10z m-3699 -75 l149 -77 7 -84 c4 -46 4 -98 -1 -115 -23 -78
-117 -94 -224 -37 -99 52 -100 56 -100 235 0 99 4 154 10 154 6 0 78 -34 159
-76z m3021 -27 c63 -34 114 -66 113 -72 -1 -9 -237 -124 -256 -125 -8 0 -5 76
9 208 3 28 8 52 12 52 4 0 59 -29 122 -63z m-1750 23 c27 -27 25 -72 -5 -120
-24 -38 -25 -47 -25 -189 0 -115 -3 -151 -14 -160 -11 -9 -17 -8 -28 3 -12 12
-14 52 -10 232 2 121 9 227 14 237 12 23 43 22 68 -3z m-1878 -103 c96 -58
138 -84 198 -123 36 -23 78 -46 93 -50 27 -6 28 -9 22 -43 -9 -47 -11 -48 -43
-28 -15 9 -73 42 -129 73 -57 31 -103 57 -103 59 0 3 52 -20 116 -50 64 -30
124 -55 133 -55 9 0 -11 13 -44 28 -128 57 -281 141 -305 166 -21 23 -22 29
-10 36 22 14 31 12 72 -13z m849 -14 c13 -35 3 -152 -21 -253 -10 -41 -19 -68
-20 -60 -5 37 -7 326 -3 333 10 16 34 5 44 -20z m3017 -17 c5 -42 -9 -50 -51
-30 -20 10 -39 15 -43 12 -8 -9 15 -49 38 -68 18 -14 9 -20 -155 -103 -95 -48
-177 -87 -182 -87 -4 0 -5 27 -3 60 3 43 10 66 24 79 10 11 80 46 155 79 75
33 149 67 165 76 37 20 48 16 52 -18z m62 -11 c0 -25 -4 -45 -10 -45 -5 0 -10
20 -10 45 0 25 5 45 10 45 6 0 10 -20 10 -45z m-1061 -122 c0 -87 -4 -178 -7
-203 l-7 -45 -243 -122 c-134 -68 -254 -123 -267 -123 -12 0 -27 6 -32 13 -6
7 -9 87 -8 195 2 197 4 203 56 216 36 8 39 -6 29 -171 -9 -136 -4 -173 23
-173 7 0 20 14 29 30 13 23 24 30 47 30 32 0 264 82 287 101 11 9 14 49 14
178 0 187 3 204 33 219 47 23 47 21 46 -145z m-1799 61 c132 -67 169 -90 171
-107 2 -12 3 -100 1 -194 -2 -142 -5 -173 -17 -173 -8 0 -45 19 -82 42 -38 23
-108 63 -158 88 l-90 46 -8 169 c-7 160 -4 215 9 215 3 0 81 -38 174 -86z
m1697 -76 c-4 -66 -7 -142 -7 -167 0 -25 -4 -52 -8 -59 -5 -7 -37 -17 -72 -23
-36 -6 -100 -26 -144 -45 -43 -19 -85 -33 -93 -30 -17 7 -19 256 -2 288 12 22
281 157 313 158 18 0 19 -6 13 -122z m-1014 -45 c-1 -64 -5 -118 -7 -121 -3
-2 -55 21 -116 52 -60 31 -110 55 -110 53 0 -6 104 -74 158 -102 29 -16 57
-34 64 -42 21 -25 -3 -28 -45 -4 -23 13 -82 46 -132 73 -119 65 -134 76 -116
88 8 4 24 4 36 0 18 -7 22 -5 21 8 -1 22 224 135 239 120 6 -5 9 -58 8 -125z
m-1150 -38 c148 -79 195 -111 183 -123 -10 -9 -146 64 -253 136 -78 51 -91 62
-77 62 3 0 69 -34 147 -75z m1645 43 c-3 -12 -331 -186 -351 -188 -23 -1 2 37
33 50 19 8 96 45 170 82 144 71 154 75 148 56z m-1784 -35 c28 -14 84 -47 125
-72 42 -26 99 -60 128 -76 40 -21 55 -36 64 -62 6 -20 7 -39 2 -44 -5 -5 -44
12 -93 40 -47 26 -128 71 -180 100 -133 72 -155 91 -146 125 8 31 18 30 100
-11z m856 -22 c13 -48 13 -144 -1 -253 -11 -84 -20 -105 -33 -73 -4 11 -9 290
-6 374 0 25 29 -9 40 -48z m274 -104 c102 -56 151 -89 157 -105 13 -33 12
-339 -1 -347 -6 -4 -25 2 -43 13 -17 11 -97 55 -177 97 -80 42 -151 84 -157
93 -14 17 -19 342 -7 355 10 9 65 -16 228 -106z m674 57 c2 -21 1 -94 -3 -161
l-7 -122 -61 -35 c-59 -33 -126 -91 -116 -100 9 -9 93 15 138 40 36 20 41 22
21 5 -55 -45 -336 -188 -348 -176 -9 8 -15 300 -8 358 l7 57 177 89 c97 50
182 89 187 87 6 -1 12 -20 13 -42z m1056 15 c21 -18 33 -36 29 -45 -5 -13
-334 -184 -355 -184 -10 0 -11 101 -1 126 7 19 237 133 270 134 12 0 38 -14
57 -31z m-368 -175 c-12 -116 -46 -141 -46 -33 0 61 15 99 39 99 11 0 12 -13
7 -66z m-82 10 c10 -27 7 -71 -7 -82 -8 -7 -19 -6 -37 3 -25 14 -70 20 -70 9
0 -16 24 -45 47 -58 27 -14 25 -15 -146 -101 -95 -47 -197 -97 -226 -110 l-53
-23 5 62 c3 33 10 69 15 79 8 15 437 237 458 237 4 0 11 -7 14 -16z m-1824
-143 c163 -89 211 -124 194 -141 -7 -7 -21 -3 -48 15 -36 25 -225 127 -313
170 -39 18 -42 23 -43 59 l0 40 33 -32 c17 -17 97 -67 177 -111z m797 -20 c-6
-137 -23 -233 -38 -210 -5 8 -9 89 -9 181 0 149 2 168 17 177 30 16 36 -13 30
-148z m-841 112 c32 -20 93 -55 134 -79 93 -53 117 -70 109 -78 -11 -11 -339
168 -339 185 0 19 38 8 96 -28z m596 -258 c139 -75 158 -89 141 -106 -9 -9
-24 -4 -60 16 -26 15 -100 57 -163 92 -115 64 -150 89 -150 104 0 12 90 -29
232 -106z m768 54 c0 -19 -16 -95 -27 -129 -7 -24 -19 6 -28 66 -6 47 -4 53
16 68 31 21 39 20 39 -5z m-950 -46 c25 -14 68 -37 95 -51 119 -58 233 -132
239 -154 16 -60 -3 -74 -52 -39 -15 10 -95 57 -179 105 -186 107 -198 115
-189 144 9 29 31 28 86 -5z m870 15 c0 -16 -31 -48 -47 -48 -19 0 -16 -13 7
-33 38 -32 44 -29 -258 -173 -115 -55 -149 -67 -137 -51 8 12 18 42 21 67 3
25 12 53 19 63 14 20 351 186 378 187 9 0 17 -5 17 -12z m-456 -266 c-4 -26
-6 -53 -5 -59 5 -30 -17 -9 -27 26 -16 52 -15 58 10 83 27 27 33 14 22 -50z"/>
<path d="M2452 4090 c0 -46 2 -58 8 -39 4 14 4 43 0 65 -7 35 -8 32 -8 -26z"/>
<path d="M2476 2777 c-7 -30 8 -102 24 -112 14 -8 12 30 -3 90 -13 47 -14 48
-21 22z"/>
<path d="M2370 2703 c11 -24 25 -43 30 -43 17 0 11 15 -20 50 l-31 35 21 -42z"/>
<path d="M2290 2460 c0 -5 7 -10 16 -10 8 0 12 5 9 10 -3 6 -10 10 -16 10 -5
0 -9 -4 -9 -10z"/>
<path d="M2310 2271 c0 -13 29 -35 37 -28 7 8 -15 37 -28 37 -5 0 -9 -4 -9 -9z"/>
<path d="M2550 2175 c0 -8 4 -15 10 -15 5 0 7 7 4 15 -4 8 -8 15 -10 15 -2 0
-4 -7 -4 -15z"/>
<path d="M1160 2495 c0 -3 36 -23 80 -45 44 -22 80 -38 80 -35 0 3 -36 23 -80
45 -44 22 -80 38 -80 35z"/>
<path d="M4533 2460 c0 -25 2 -35 4 -22 2 12 2 32 0 45 -2 12 -4 2 -4 -23z"/>
<path d="M244 2075 c-10 -8 -14 -15 -8 -15 6 0 17 7 24 15 16 19 9 19 -16 0z"/>
<path d="M4522 1950 c0 -14 2 -19 5 -12 2 6 2 18 0 25 -3 6 -5 1 -5 -13z"/>
<path d="M240 1755 c0 -9 159 -85 177 -85 10 0 -14 16 -53 35 -80 39 -124 57
-124 50z"/>
<path d="M3640 996 c0 -7 134 -86 146 -86 5 0 0 8 -11 16 -25 19 -135 76 -135
70z"/>
</g>
</svg>
