<?xml version="1.0" encoding="UTF-8" standalone="no"?>
<!-- Generator: Adobe Illustrator 13.0.2, SVG Export Plug-In . SVG Version: 6.00 Build 14948)  -->

<svg
   version="1.1"
   id="Layer_1"
   x="0px"
   y="0px"
   width="582.85583"
   height="536.94684"
   viewBox="0 0 392.06703 361.27499"
   enable-background="new 0 0 392.164 484.439"
   xml:space="preserve"
   sodipodi:docname="ncbi.svg"
   xmlns:inkscape="http://www.inkscape.org/namespaces/inkscape"
   xmlns:sodipodi="http://sodipodi.sourceforge.net/DTD/sodipodi-0.dtd"
   xmlns="http://www.w3.org/2000/svg"
   xmlns:svg="http://www.w3.org/2000/svg"><defs
   id="defs11" /><sodipodi:namedview
   id="namedview11"
   pagecolor="#505050"
   bordercolor="#eeeeee"
   borderopacity="1"
   inkscape:showpageshadow="0"
   inkscape:pageopacity="0"
   inkscape:pagecheckerboard="0"
   inkscape:deskcolor="#505050" />&#10;<g
   id="g2"
   transform="matrix(1,0,0,0.74575952,-0.0485118,-1.0800781e-6)">&#10;	<g
   id="g1">&#10;		<rect
   fill="#336699"
   width="392.164"
   height="484.439"
   id="rect1"
   x="0"
   y="0" />&#10;	</g>&#10;</g>&#10;<g
   id="g8"
   transform="translate(-0.0485118,-50.485382)">&#10;	<g
   id="g7">&#10;		<path
   fill="#231f20"
   d="M 197.84,68.301 C 143.285,74.418 57.891,101.897 159.893,144.647 209.709,166.022 38.92,101.897 197.84,89.684"
   id="path2" />&#10;		<path
   fill="#231f20"
   d="m 195.471,272.91 c 54.555,-6.117 139.957,-36.646 37.955,-79.396 -49.816,-21.382 120.973,45.802 -37.955,54.963"
   id="path3" />&#10;		<path
   fill="#231f20"
   d="m 195.471,156.867 c 158.928,-9.162 -11.861,-76.346 37.955,-54.971 102.002,42.75 16.6,73.294 -37.955,79.396 h 4.746 c -158.928,9.162 9.492,73.295 -40.324,51.92 -99.626,-42.758 -16.607,-70.242 40.324,-76.346"
   id="path4" />&#10;		<path
   fill="#ffffff"
   d="M 197.84,65.25 C 140.915,71.359 57.891,98.846 157.524,141.596 209.71,162.971 38.92,98.846 197.84,89.684"
   id="path5" />&#10;		<path
   fill="#ffffff"
   d="m 193.102,269.852 c 56.924,-6.109 139.949,-36.639 40.324,-79.396 -49.816,-21.375 118.603,45.809 -40.324,54.963"
   id="path6" />&#10;		<path
   fill="#ffffff"
   d="m 195.471,153.815 c 156.558,-9.169 -11.861,-76.345 37.955,-54.97 99.625,42.75 16.6,73.286 -40.324,79.396 h 4.738 c -158.92,9.162 11.869,73.287 -37.947,51.912 -102.002,-42.75 -16.607,-70.236 37.947,-76.339"
   id="path7" />&#10;	</g>&#10;</g>&#10;<g
   id="g11"
   transform="translate(-0.0485118,-50.485382)">&#10;	<path
   fill="#ffffff"
   d="m 76.217,382.443 c 2.42,-1.383 2.881,-2.073 3.571,-5.99 2.074,-12.097 3.341,-40.667 3.341,-47.35 0,-9.446 -0.114,-9.331 -2.188,-11.75 -2.995,-3.687 -5.069,-4.724 -6.566,-5.185 v -0.461 c 2.765,0.346 5.99,0.461 8.295,0.461 2.649,0 5.99,-0.23 7.604,-0.461 15.552,23.502 33.179,42.165 46.427,57.372 0.115,-1.498 0.115,-9.102 0.115,-14.977 -0.23,-15.553 -0.576,-32.948 -2.188,-38.018 -0.807,-2.419 -1.959,-3.571 -3.457,-3.917 v -0.461 c 3.111,0.23 6.567,0.461 9.908,0.461 3.11,0 4.838,-0.23 6.566,-0.461 v 0.461 c -1.613,0.576 -2.419,1.383 -3.226,4.493 -1.729,6.336 -3.917,53.224 -4.493,66.242 -0.576,-0.115 -1.152,-0.115 -1.728,-0.115 -0.691,0 -1.268,0 -1.844,0.115 -14.4,-16.475 -37.441,-42.741 -48.731,-57.947 l -0.23,0.23 c 0.115,7.948 0.576,38.823 2.189,51.841 0.346,2.996 0.807,4.378 2.88,5.415 v 0.461 c -2.765,-0.346 -5.53,-0.461 -8.295,-0.461 -2.649,0 -5.299,0.23 -7.949,0.461 v -0.459 z"
   id="path8" />&#10;	<path
   fill="#ffffff"
   d="m 212.96,328.759 c 0,-2.074 -0.23,-4.263 -2.419,-6.337 -4.608,-4.263 -12.673,-5.76 -17.051,-5.76 -6.682,0 -11.29,0.691 -14.861,2.765 -7.373,4.378 -8.985,16.82 -8.985,24.884 0,21.773 12.787,30.299 29.146,30.299 9.907,0 15.782,-4.147 18.663,-6.451 0.461,0.807 1.151,1.728 1.497,2.073 -5.645,4.839 -7.834,7.488 -11.636,12.558 -2.304,0.576 -3.917,1.152 -10.022,1.152 -21.658,0 -37.441,-12.558 -37.441,-35.944 0,-23.731 16.705,-37.326 39.17,-37.326 8.64,0 15.092,1.844 17.972,1.844 h 1.151 c -1.497,2.995 -3.341,8.871 -3.341,16.244 h -1.843 z"
   id="path9" />&#10;	<path
   fill="#ffffff"
   d="m 254.775,383.941 c -1.959,0 -4.954,-0.346 -7.719,-0.807 -2.881,-0.346 -5.646,-0.691 -7.373,-0.691 -2.189,0 -8.295,0.346 -9.332,0.461 v -0.461 c 1.729,-0.23 3.226,-1.844 3.802,-4.954 0.691,-3.687 1.268,-10.368 1.268,-30.183 0,-31.451 -1.152,-34.216 -5.069,-35.138 v -0.461 c 0.576,0 2.305,0.115 4.263,0.23 1.959,0.115 4.032,0.23 5.069,0.23 1.958,0 5.184,-0.346 8.755,-0.807 3.571,-0.346 7.604,-0.691 11.06,-0.691 12.097,0 18.202,4.839 18.202,14.632 0,7.718 -5.529,12.787 -12.672,18.547 6.566,0.807 18.663,4.724 18.663,17.512 0,5.76 -1.959,10.829 -5.991,14.285 -6.222,5.416 -12.097,8.296 -22.926,8.296 z m -10.023,-67.855 c -0.691,4.608 -0.691,14.631 -0.691,27.188 3.688,0 15.207,0 16.705,-0.346 2.073,-1.613 7.143,-5.876 7.143,-13.134 0,-9.446 -6.221,-14.516 -15.783,-14.516 -2.535,10e-4 -4.954,0.347 -7.374,0.808 z m -0.691,31.105 c 0,7.948 0,20.852 0.691,27.994 3.11,1.729 7.949,4.147 15.322,4.147 4.378,0 7.949,-1.037 9.793,-2.419 2.995,-2.189 4.031,-8.525 4.031,-11.29 0,-11.636 -8.524,-18.778 -20.736,-18.778 -2.995,10e-4 -7.027,0.346 -9.101,0.346 z"
   id="path10" />&#10;	<path
   fill="#ffffff"
   d="m 315.254,312.169 c -4.147,1.037 -5.068,4.493 -5.068,35.138 0,31.45 1.151,34.1 5.068,35.137 v 0.461 c -1.037,-0.115 -7.143,-0.461 -9.446,-0.461 -2.189,0 -8.295,0.346 -9.332,0.461 v -0.461 c 4.032,-0.922 5.069,-4.493 5.069,-35.137 0,-31.105 -1.152,-34.216 -5.069,-35.138 v -0.461 c 1.037,0.115 7.143,0.461 9.332,0.461 2.304,0 8.409,-0.346 9.446,-0.461 z"
   id="path11" />&#10;</g>&#10;</svg>
