<?xml version="1.0" encoding="UTF-8" standalone="no"?>
<svg
   viewBox="9 0 84.260002 54.870006"
   version="1.1"
   id="svg11"
   sodipodi:docname="uv_vis_2_thermo_c2.svg"
   inkscape:version="1.3 (0e150ed6c4, 2023-07-21)"
   width="84.260002"
   height="54.870007"
   xmlns:inkscape="http://www.inkscape.org/namespaces/inkscape"
   xmlns:sodipodi="http://sodipodi.sourceforge.net/DTD/sodipodi-0.dtd"
   xmlns:xlink="http://www.w3.org/1999/xlink"
   xmlns="http://www.w3.org/2000/svg"
   xmlns:svg="http://www.w3.org/2000/svg">
  <sodipodi:namedview
     id="namedview11"
     pagecolor="#505050"
     bordercolor="#eeeeee"
     borderopacity="1"
     inkscape:showpageshadow="0"
     inkscape:pageopacity="0"
     inkscape:pagecheckerboard="0"
     inkscape:deskcolor="#505050"
     showgrid="true"
     inkscape:zoom="11.313709"
     inkscape:cx="42.912541"
     inkscape:cy="33.631765"
     inkscape:window-width="2560"
     inkscape:window-height="1366"
     inkscape:window-x="0"
     inkscape:window-y="0"
     inkscape:window-maximized="1"
     inkscape:current-layer="Layer_2">
    <inkscape:grid
       id="grid11"
       units="px"
       originx="0"
       originy="1.5327556e-05"
       spacingx="0.99999998"
       spacingy="1"
       empcolor="#0099e5"
       empopacity="0.30196078"
       color="#0099e5"
       opacity="0.14902"
       empspacing="5"
       dotted="false"
       gridanglex="30"
       gridanglez="30"
       visible="true" />
  </sodipodi:namedview>
  <defs
     id="defs1">
    <pattern
       inkscape:collect="always"
       xlink:href="#pattern6-7"
       preserveAspectRatio="xMidYMid"
       id="pattern26"
       patternTransform="translate(190,350)" />
    <pattern
       patternUnits="userSpaceOnUse"
       width="29"
       height="20"
       patternTransform="translate(190,350)"
       preserveAspectRatio="xMidYMid"
       style="fill:#000000"
       id="pattern6-7"
       inkscape:label=""
       inkscape:collect="always"
       inkscape:isstock="true">
      <path
         style="fill:none;stroke:#000000;stroke-width:10;stroke-linecap:butt;stroke-dasharray:none;paint-order:stroke markers fill;stop-color:#000000"
         d="M 0,5 C 19,5 10,15 29,15"
         id="path4-2"
         sodipodi:nodetypes="cc" />
    </pattern>
    <inkscape:path-effect
       effect="spiro"
       id="path-effect19"
       is_visible="true"
       lpeversion="1" />
    <inkscape:path-effect
       effect="spiro"
       id="path-effect18"
       is_visible="true"
       lpeversion="1" />
    <style
       id="style1">.cls-1{fill:#58595b;}</style>
  </defs>
  <g
     id="Layer_2"
     data-name="Layer 2">
    <path
       style="opacity:0.874712;fill:#29292a;fill-opacity:0;stroke:#505050;stroke-width:0.0200117;stroke-linejoin:round;stroke-opacity:0.298039"
       d="m 29.048211,23.912925 c -0.214535,-0.03169 -0.383157,-0.116949 -0.55145,-0.278812 -0.185892,-0.178789 -0.296067,-0.434892 -0.296635,-0.68953 -1.35e-4,-0.06084 0.190678,-1.542956 0.42403,-3.293599 0.233352,-1.750643 0.620094,-4.653851 0.859426,-6.451572 0.239332,-1.797722 0.514091,-3.8614328 0.610577,-4.5860247 0.09649,-0.7245918 0.18294,-1.3512095 0.192121,-1.3924837 0.02338,-0.1050987 0.118314,-0.2945197 0.192237,-0.3835584 0.142485,-0.1716193 0.321697,-0.2859508 0.533752,-0.3405159 0.0925,-0.023802 0.694275,-0.026366 6.187299,-0.026366 h 6.084833 l 0.124738,0.034284 c 0.322368,0.088603 0.589493,0.3570646 0.696121,0.6996058 0.02671,0.085797 0.02872,0.5871402 0.03187,7.9211889 0.002,4.700135 -0.0028,7.871093 -0.01199,7.933421 -0.05819,0.393708 -0.32188,0.7002 -0.716332,0.832617 -0.08856,0.02973 -0.335783,0.03087 -7.179213,0.033 -3.89812,0.0012 -7.129742,-0.004 -7.18138,-0.01166 z m 3.261704,-7.994001 c 0.113909,-0.05593 0.218163,-0.155855 0.275638,-0.264196 l 0.03975,-0.07493 0.0316,0.06387 c 0.05501,0.111196 0.157072,0.210945 0.27545,0.269222 l 0.111338,0.05481 h 0.934232 0.934232 l 0.09622,-0.04509 c 0.105322,-0.04936 0.244576,-0.180324 0.278302,-0.261745 0.01178,-0.02844 0.02614,-0.0516 0.0319,-0.05147 0.0058,1.32e-4 0.0306,0.03673 0.05519,0.08132 0.05166,0.09369 0.156081,0.185005 0.273479,0.239146 l 0.08205,0.03784 h 0.933881 0.933882 l 0.09372,-0.04395 c 0.126882,-0.05949 0.215362,-0.143365 0.283181,-0.268432 l 0.05669,-0.104534 V 14.70863 13.86647 l -0.0466,-0.09489 C 37.9248,13.650935 37.786065,13.522675 37.659542,13.471582 l -0.09583,-0.0387 h -0.900529 -0.900528 l -0.09508,0.03842 c -0.112523,0.04547 -0.247119,0.161228 -0.307753,0.264691 l -0.04343,0.07412 -0.04691,-0.08213 c -0.06136,-0.107439 -0.179203,-0.209588 -0.296501,-0.257016 -0.09403,-0.03802 -0.09554,-0.03808 -0.994702,-0.03808 h -0.900528 l -0.09583,0.0387 c -0.119163,0.04812 -0.263904,0.178029 -0.316943,0.284463 l -0.03997,0.08022 -0.04703,-0.08983 c -0.08751,-0.167151 -0.256481,-0.279361 -0.463957,-0.308113 -0.06355,-0.0088 -0.472619,-0.01338 -0.925847,-0.01036 -0.811959,0.0054 -0.812003,0.0054 -0.912057,0.0454 -0.136974,0.05474 -0.28829,0.206034 -0.34314,0.343084 -0.03981,0.09947 -0.04008,0.104322 -0.04536,0.829048 -0.0034,0.464546 0.0011,0.763598 0.01232,0.824395 0.04358,0.235731 0.197047,0.410846 0.422635,0.482243 0.05557,0.01759 0.260493,0.02154 0.979141,0.01891 l 0.908867,-0.0033 z m 8.109126,0.03195 c 0.181856,-0.05401 0.339411,-0.207929 0.399234,-0.390029 0.02803,-0.08532 0.03069,-0.160786 0.03069,-0.868888 V 13.916499 L 40.808737,13.81644 C 40.75361,13.679338 40.602199,13.528029 40.46541,13.473346 l -0.100058,-0.04 -0.823236,-0.0054 c -0.504346,-0.0033 -0.865457,0.0012 -0.932234,0.01156 -0.207101,0.03224 -0.379253,0.158645 -0.472934,0.347253 l -0.03959,0.07971 -0.0048,0.810755 c -0.0046,0.785391 -0.0037,0.813644 0.02977,0.903073 0.06602,0.176468 0.195981,0.303908 0.371889,0.364689 0.07908,0.02733 0.163923,0.03001 0.963376,0.03051 0.734252,4.56e-4 0.890424,-0.0035 0.961414,-0.02463 z m 2.894333,-0.03196 c 0.118864,-0.06019 0.233506,-0.180153 0.292545,-0.306116 l 0.04469,-0.09536 0.005,-0.763646 c 0.0055,-0.855352 0.0019,-0.891943 -0.105635,-1.053924 -0.09554,-0.143934 -0.230298,-0.228657 -0.410106,-0.257833 -0.141956,-0.02303 -1.589405,-0.02282 -1.731635,2.56e-4 -0.20974,0.03403 -0.373715,0.157037 -0.465411,0.349135 l -0.04378,0.09172 -0.0049,0.784067 c -0.0046,0.738163 -0.003,0.790178 0.02757,0.888457 0.05535,0.177847 0.200786,0.329083 0.374847,0.389801 0.07948,0.02773 0.156774,0.02974 1.003323,0.02614 l 0.917205,-0.0039 z"
       id="path12"
       inkscape:label="path12" />
    <g
       id="Layer_1-2"
       data-name="Layer 1">
      <path
         style="opacity:0.874712;fill:#46474b;fill-opacity:1;stroke:#0f0f14;stroke-width:0;stroke-linejoin:round;stroke-dasharray:none;stroke-opacity:0.198584"
         d="M 76.703979,10.265259 C 75.78855,9.9056484 74.860294,9.5786909 73.92157,9.2852173 L 71.46582,8.8007812 68.796143,8.519165 c -0.836987,-0.029312 -1.674869,-0.033058 -2.512085,-0.01123 -0.8536,0.022255 -1.706507,0.071094 -2.557068,0.1464233 -0.752143,0.1504641 -1.499816,0.3232748 -2.2417,0.5181274 -0.77989,0.2048347 -1.553382,0.4340282 -2.318969,0.6871338 l -1.881226,0.7321775 -1.633423,0.878601 -1.374328,1.261658 -1.058838,1.362976 -0.371765,0.889892 -0.146057,1.193299 0.202758,0.901184 0.709717,1.430603 1.081421,1.092712 2.309265,1.509094 c 0.524583,0.198178 1.050269,0.393434 1.577027,0.585755 0.543346,0.198378 1.087832,0.393633 1.633422,0.585754 l 3.120362,0.686402 3.43573,0.394226 c 0.567217,-0.03409 1.134227,-0.07163 1.700988,-0.11261 0.484566,-0.03504 0.96895,-0.0726 1.453125,-0.112671 l 3.862671,-0.563233 2.624695,-0.878662 2.658508,-1.351745 1.327637,-1.047608 0.844849,-0.934997 0.574524,-1.013794 0.337951,-1.205322 -0.180236,-1.329224 -0.484375,-0.934937 -0.63086,-0.799804 -1.092651,-1.058838 -0.980042,-0.720947 -0.85614,-0.529419 c -0.406283,-0.174838 -0.815371,-0.343161 -1.227051,-0.504883 z"
         id="path18"
         inkscape:path-effect="#path-effect18"
         inkscape:original-d="m 76.703979,10.265259 c 0,0 -2.782409,-0.9800417 -2.782409,-0.9800417 0,0 -2.45575,-0.4844361 -2.45575,-0.4844361 0,0 -2.669677,-0.2816162 -2.669677,-0.2816162 0,0 -2.512085,-0.01123 -2.512085,-0.01123 0,0 -2.557068,0.1464233 -2.557068,0.1464233 0,0 -2.2417,0.5181274 -2.2417,0.5181274 0,0 -2.318969,0.6871338 -2.318969,0.6871338 0,0 -1.881226,0.7321775 -1.881226,0.7321775 0,0 -1.633423,0.878601 -1.633423,0.878601 0,0 -1.374328,1.261658 -1.374328,1.261658 0,0 -1.058838,1.362976 -1.058838,1.362976 0,0 -0.371765,0.889892 -0.371765,0.889892 0,0 -0.146057,1.193299 -0.146057,1.193299 0,0 0.202758,0.901184 0.202758,0.901184 0,0 0.709717,1.430603 0.709717,1.430603 0,0 1.081421,1.092712 1.081421,1.092712 0,0 2.309265,1.509094 2.309265,1.509094 0,0 1.577027,0.585755 1.577027,0.585755 0,0 1.633422,0.585754 1.633422,0.585754 0,0 3.120362,0.686402 3.120362,0.686402 0,0 3.43573,0.394226 3.43573,0.394226 0,0 1.700988,-0.11261 1.700988,-0.11261 0,0 1.453125,-0.112671 1.453125,-0.112671 0,0 3.862671,-0.563233 3.862671,-0.563233 0,0 2.624695,-0.878662 2.624695,-0.878662 0,0 2.658508,-1.351745 2.658508,-1.351745 0,0 1.327637,-1.047608 1.327637,-1.047608 0,0 0.844849,-0.934997 0.844849,-0.934997 0,0 0.574524,-1.013794 0.574524,-1.013794 0,0 0.337951,-1.205322 0.337951,-1.205322 0,0 -0.180236,-1.329224 -0.180236,-1.329224 0,0 -0.484375,-0.934937 -0.484375,-0.934937 0,0 -0.63086,-0.799804 -0.63086,-0.799804 0,0 -1.092651,-1.058838 -1.092651,-1.058838 0,0 -0.980042,-0.720947 -0.980042,-0.720947 0,0 -0.85614,-0.529419 -0.85614,-0.529419 z" />
      <path
         class="cls-1"
         d="M 64.16,54.87 H 20.26 A 1.75,1.75 0 0 1 18.51,53.11 V 34.17 a 1.75,1.75 0 0 1 1.75,-1.75 h 43.9 a 1.75,1.75 0 0 1 1.75,1.75 v 18.94 a 1.76,1.76 0 0 1 -1.75,1.76 z M 20.26,33.92 a 0.25,0.25 0 0 0 -0.25,0.25 v 18.94 a 0.26,0.26 0 0 0 0.25,0.26 h 43.9 a 0.26,0.26 0 0 0 0.25,-0.26 V 34.17 a 0.25,0.25 0 0 0 -0.25,-0.25 z"
         id="path1"
         style="fill:#737477;fill-opacity:1" />
      <path
         class="cls-1"
         d="m 45.64,27.18 h -19.3 a 1.76,1.76 0 0 1 -1.74,-2 L 27.33,4.73 A 1.76,1.76 0 0 1 29.07,3.21 H 45.64 A 1.75,1.75 0 0 1 47.39,5 v 20.43 a 1.75,1.75 0 0 1 -1.75,1.75 z M 29.07,4.71 A 0.24,0.24 0 0 0 28.82,4.93 L 26.08,25.4 a 0.27,0.27 0 0 0 0.07,0.2 0.24,0.24 0 0 0 0.19,0.08 h 19.3 a 0.25,0.25 0 0 0 0.25,-0.25 V 5 A 0.25,0.25 0 0 0 45.64,4.75 Z"
         id="path2"
         style="fill:#3e3e40;fill-opacity:1" />
      <path
         class="cls-1"
         d="M 28.2,22.8 30.26,7.33 a 1,1 0 0 1 1,-0.87 h 11.88 a 1,1 0 0 1 1,1 v 15.47 a 1,1 0 0 1 -1,1 H 29.19 A 1,1 0 0 1 28.2,22.8 Z"
         id="path3" />
      <path
         class="cls-1"
         d="M 56.64,31.19 H 20.41 A 1.75,1.75 0 0 1 19.09,30.59 1.73,1.73 0 0 1 18.67,29.2 L 22.4,1.52 A 1.75,1.75 0 0 1 24.14,0 h 31.05 a 1.75,1.75 0 0 1 1.74,1.58 l 0.49,4.84 A 0.74,0.74 0 0 1 56.75,7.24 0.76,0.76 0 0 1 55.93,6.57 L 55.44,1.73 A 0.25,0.25 0 0 0 55.19,1.5 h -31 A 0.26,0.26 0 0 0 23.93,1.72 L 20.15,29.4 a 0.29,0.29 0 0 0 0.06,0.2 0.29,0.29 0 0 0 0.2,0.09 h 36.23 a 0.75,0.75 0 0 1 0,1.5 z"
         id="path4"
         style="fill:#737477;fill-opacity:1" />
      <path
         class="cls-1"
         d="M 79,7.92 A 0.76,0.76 0 0 1 78.26,7.28 L 77.44,1.72 A 0.24,0.24 0 0 0 77.19,1.5 H 59.27 A 0.76,0.76 0 0 1 58.52,0.75 0.76,0.76 0 0 1 59.27,0 h 17.91 a 1.76,1.76 0 0 1 1.74,1.5 l 0.82,5.56 A 0.75,0.75 0 0 1 79.1,7.91 Z"
         id="path5"
         style="fill:#737477;fill-opacity:1" />
      <path
         class="cls-1"
         d="M 101.51,37.41 H 85.88 a 0.75,0.75 0 0 1 0,-1.5 h 15.63 a 0.75,0.75 0 1 1 0,1.5 z"
         id="path6"
         style="fill:#737477;fill-opacity:1" />
      <path
         class="cls-1"
         d="M 16.38,37.41 H 0.75 a 0.75,0.75 0 0 1 0,-1.5 h 15.63 a 0.75,0.75 0 0 1 0,1.5 z"
         id="path7"
         style="fill:#737477;fill-opacity:1" />
      <path
         class="cls-1"
         d="m 60.47,41.37 h -2.4 a 1,1 0 0 1 -1,-1 v -0.36 a 1,1 0 0 1 1,-1 h 2.4 a 1,1 0 0 1 1,1 v 0.36 a 1,1 0 0 1 -1,1 z m -2.4,-1.53 a 0.21,0.21 0 0 0 -0.21,0.21 v 0.36 a 0.21,0.21 0 0 0 0.21,0.21 h 2.4 a 0.21,0.21 0 0 0 0.21,-0.21 v -0.36 a 0.21,0.21 0 0 0 -0.21,-0.21 z"
         id="path8"
         style="fill:#737477;fill-opacity:1" />
      <path
         class="cls-1"
         d="m 67.44,7 c -9.09,0 -16.21,3.93 -16.21,9 v 5.7 c 0,5 7.12,9 16.21,9 6.61,0 12.16,-2.09 14.71,-5.15 v 2.91 c -1.51,3.49 -7.53,6.11 -14.71,6.11 a 0.38,0.38 0 1 0 0,0.75 c 6.67,0 12.38,-2.25 14.71,-5.42 v 9.54 c -1.51,3.49 -7.53,6.11 -14.71,6.11 a 0.38,0.38 0 1 0 0,0.75 c 6.67,0 12.38,-2.25 14.71,-5.42 v 1.45 c 0,4 -6.74,7.44 -14.71,7.44 a 0.75,0.75 0 0 0 0,1.5 c 9.09,0 16.21,-3.93 16.21,-8.94 V 16 c 0,-5.06 -7.12,-9 -16.21,-9 z m 0,1.5 c 8,0 14.71,3.41 14.71,7.45 0,4.04 -6.74,7.45 -14.71,7.45 -7.97,0 -14.71,-3.4 -14.71,-7.4 0,-4 6.73,-7.49 14.71,-7.49 z M 82.15,21 v 0.71 c 0,4 -6.74,7.45 -14.71,7.45 -7.97,0 -14.71,-3.46 -14.71,-7.5 v -1.9 c 2.54,3.06 8.1,5.14 14.71,5.14 6.61,0 12.16,-2.08 14.71,-5.14 z"
         id="path9"
         style="fill:#737477;fill-opacity:1" />
      <path
         class="cls-1"
         d="m 60.9,21.6 a 0.67,0.67 0 0 1 -0.24,0 0.74,0.74 0 0 1 -0.46,-0.95 c 1.2,-3.5 4,-5.77 7.25,-5.77 3.25,0 6,2.23 7.23,5.69 a 0.75272837,0.75272837 0 0 1 -1.42,0.5 c -1,-2.85 -3.28,-4.69 -5.81,-4.69 -2.53,0 -4.85,1.87 -5.84,4.76 A 0.73,0.73 0 0 1 60.9,21.6 Z"
         id="path10"
         style="fill:#91bcd6;fill-opacity:1" />
      <path
         class="cls-1"
         d="m 62.39,46.21 h -40.8 a 0.38,0.38 0 1 1 0,-0.75 h 40.8 a 0.38,0.38 0 1 1 0,0.75 z"
         id="path11" />
      <path
         style="opacity:0.874712;fill:#4c4e52;fill-opacity:1;stroke:#0f0f14;stroke-width:0;stroke-linejoin:round;stroke-dasharray:none;stroke-opacity:0.198584"
         d="M 78.409441,9.3235896 C 78.362566,8.5261971 78.29228,7.730181 78.198705,6.936912 78.070892,5.8533958 77.899709,4.7755438 77.735184,3.6969914 77.629193,3.0021582 77.525947,2.3069062 77.42545,1.611257 L 77.281833,1.5053982 c -5.040814,0.014589 -10.081676,0.012685 -15.122478,-0.00571 -1.043765,-0.00381 -2.087574,-0.00832 -3.131286,0.0029 -0.699737,0.00753 -1.399398,0.022126 -2.09884,0.043799 0.06172,0.5955343 0.12272,1.1911427 0.183008,1.7868235 0.110221,1.0890491 0.218053,2.17834 0.323494,3.2678623 L 57.31799,6.9271418 c -0.04193,0.1161169 -0.08602,0.2331858 -0.157466,0.3338633 -0.07145,0.1006775 -0.171179,0.1836538 -0.288548,0.2219388 -0.117369,0.038285 -0.250319,0.02945 -0.359245,-0.028657 -0.108925,-0.058107 -0.191054,-0.164505 -0.219029,-0.2847488 L 55.961815,6.830064 55.277589,1.6130872 c -3.844747,0.03436 -7.689421,0.076828 -11.533989,0.1274036 -5.543926,0.072931 -11.089838,0.1627077 -16.631855,0 -1.104865,-0.032438 -2.209435,-0.074908 -3.313528,-0.1274036 -0.225342,2.8955468 -0.522855,5.7854767 -0.89217,8.6662018 -0.46946,3.66188 -1.054765,7.307759 -1.593061,10.960155 -0.409526,2.778679 -0.791876,5.561363 -1.146977,8.34752 3.248357,-0.123104 6.498963,-0.186878 9.749649,-0.191278 3.547348,-0.0048 7.094469,0.06109 10.641819,0.06387 2.952525,0.0023 5.905207,-0.0391 8.857479,-3.45e-4 2.387675,0.03135 4.774541,0.115126 7.162359,0.13237 0.942005,0.0068 1.884085,0.0032 2.826012,-0.01066 L 56.750129,28.524829 55.279953,27.71554 54.772919,27.389278 52.77095,25.603386 52.153867,24.756645 51.67543,23.877113 51.312195,22.736579 51.231915,22.113987 c -0.0061,-0.958682 -0.0056,-1.917405 0.0014,-2.87608 0.0066,-0.899441 0.01888,-1.798939 0.0075,-2.698332 -0.0024,-0.188545 -0.0058,-0.377077 -0.01028,-0.565584 l 0.104187,-1.085495 0.276164,-0.924325 0.602483,-1.165244 0.864594,-1.087006 0.89425,-0.839043 1.15029,-0.853461 1.749275,-0.9149343 1.512368,-0.6480394 3.231933,-0.88237 2.968232,-0.4477691 3.576614,-0.1239319 2.258544,0.1183014 2.272659,0.318222 1.931901,0.4421387 2.055862,0.6505279 z"
         id="path19"
         inkscape:path-effect="#path-effect19"
         inkscape:original-d="M 78.409441,9.3235896 78.198705,6.936912 77.735184,3.6969914 77.42545,1.611257 77.281833,1.5053982 l -15.122478,-0.00571 -3.131286,0.0029 -2.09884,0.043799 0.183008,1.7868235 0.323494,3.2678623 -0.117741,0.3260688 c -0.139633,0.386699 -1.024288,0.2423959 -1.024288,0.2423959 L 55.961815,6.830064 55.277589,1.6130872 43.7436,1.7404908 H 27.111745 l -3.313528,-0.1274036 -0.89217,8.6662018 -1.593061,10.960155 -1.146977,8.34752 9.749649,-0.191278 10.641819,0.06387 8.857479,-3.45e-4 7.162359,0.13237 2.826012,-0.01066 -2.653198,-1.056092 -1.470176,-0.809289 -0.507034,-0.326262 -2.001969,-1.785892 -0.617083,-0.846741 -0.478437,-0.879532 -0.363235,-1.140534 -0.08028,-0.622592 0.0014,-2.87608 0.0075,-2.698332 -0.01028,-0.565584 0.104187,-1.085495 0.276164,-0.924325 0.602483,-1.165244 0.864594,-1.087006 0.89425,-0.839043 1.15029,-0.853461 1.749275,-0.9149343 1.512368,-0.6480394 3.231933,-0.88237 2.968232,-0.4477691 3.576614,-0.1239319 2.258544,0.1183014 2.272659,0.318222 1.931901,0.4421387 2.055862,0.6505279 z"
         sodipodi:nodetypes="ccccccccccsccccccccccccccccccccccccccccccccccccccccc" />
      <path
         style="opacity:0.874712;fill:#257fc3;fill-opacity:0.831373;stroke:url(#pattern26);stroke-width:0;stroke-linejoin:round;stroke-dasharray:none;stroke-dashoffset:0;stroke-opacity:0.198584"
         d="m 74.980288,34.284086 c 0.971984,4.658333 -2.905787,10.887543 -2.905787,10.887543 l 1.882598,-0.325067 1.769463,-0.515433 2.315706,-1.006218 1.592578,-0.989362 0.930698,-0.752185 0.55358,-0.546939 0.657722,-0.851493 L 82.178168,39.44 82.15,34.67 V 29.9 l -0.913145,1.034861 -1.262198,1.039793 -1.328506,0.814879 -1.200583,0.590927 -1.232043,0.495457 z"
         id="path14"
         sodipodi:nodetypes="cccccccccccccccccc" />
      <path
         style="opacity:0.874712;fill:#0e314c;fill-opacity:0.893464;stroke:#0f0f14;stroke-width:0;stroke-linejoin:round;stroke-dasharray:none;stroke-opacity:0.198584"
         d="m 74.947021,35.990173 7.231995,0.06757"
         id="path23" />
      <path
         style="opacity:0.874712;fill:#121316;fill-opacity:0.895487;stroke:#0f0f14;stroke-width:0;stroke-linejoin:round;stroke-dasharray:none;stroke-opacity:0.198584"
         d="m 65.898715,46.320216 3.288144,-0.06251 3.21048,-0.366104 3.155966,-0.820063 2.231566,-0.814123 2.001786,-1.145609 1.25915,-1.007941 1.098312,-1.222213 0.05351,1.337646 -0.146424,0.968811 -0.115558,0.431233 -0.329388,0.782513 -0.512677,0.667548 -0.650454,0.684197 -0.522405,0.506538 -1.085643,0.74662 -1.765732,0.918015 -1.836151,0.706848 -1.36023,0.366135 -1.482669,0.377289 -1.915234,0.24125 -1.445953,0.105201 -1.464417,0.03381 -1.509521,0.04504 -0.180237,0.03381 z"
         id="path15"
         sodipodi:nodetypes="cccccccccccccccccccccccccc" />
      <path
         style="opacity:0.874712;fill:#121316;fill-opacity:0.895487;stroke:#0f0f14;stroke-width:0;stroke-linejoin:round;stroke-dasharray:none;stroke-opacity:0.198584"
         d="m 20.021083,46.274494 2.413546,-0.02391 5.400536,-0.03979 4.170869,-0.01593 5.942174,0.03979 6.322011,0.0079 5.749386,-0.02391 6.990879,-0.03984 3.002917,0.07169 2.533008,-0.01593 1.847998,-0.008 -0.008,2.994889 0.04778,2.620576 0.008,1.258499 -0.119462,0.238967 -0.119506,0.03185 -0.525712,-0.01592 -0.708919,-0.02387 -0.637233,0.01593 -0.836367,0.0079 -1.601046,0.008 -1.887833,-0.03185 -2.628561,0.02387 -1.93561,-0.0079 -1.441748,0.0079 -2.444534,0.02391 -2.635423,2.59e-4 -3.264715,-0.01597 -3.495699,-0.01593 -2.963167,-0.01593 -5.223372,0.05576 -4.857216,-0.03983 -4.31588,-0.01593 -2.612635,-0.0079 -0.08679,-0.0262 -0.07603,-0.129547 -0.02252,-0.69841 0.01126,-2.477387 z"
         id="path16" />
      <path
         style="opacity:0.874712;fill:#0c0c0d;fill-opacity:0.831373;stroke:#0f0f14;stroke-width:0.0200117;stroke-linejoin:round;stroke-opacity:0.950405"
         d="m 29.083732,23.897057 c -0.233308,-0.01858 -0.381463,-0.08771 -0.569129,-0.265589 -0.15324,-0.145246 -0.244668,-0.311345 -0.285521,-0.51871 -0.02409,-0.122301 -0.02342,-0.147731 0.01126,-0.427331 0.02029,-0.16351 0.04046,-0.327308 0.04483,-0.363996 0.0044,-0.03669 0.02283,-0.179272 0.04103,-0.316853 0.0182,-0.137581 0.03677,-0.280164 0.04129,-0.316852 0.02291,-0.18631 0.108829,-0.848665 0.123309,-0.950558 0.0091,-0.06421 0.03211,-0.236806 0.05107,-0.383559 0.01897,-0.146752 0.04919,-0.375637 0.06717,-0.508631 0.01798,-0.132995 0.03653,-0.275579 0.04123,-0.316853 0.0047,-0.04127 0.01206,-0.0938 0.01635,-0.116735 0.0043,-0.02293 0.01186,-0.07921 0.01681,-0.125074 0.0049,-0.04586 0.01248,-0.105895 0.01673,-0.133411 0.0087,-0.05615 0.253598,-1.889499 0.300761,-2.251321 0.0036,-0.02752 0.01196,-0.08755 0.0186,-0.133412 0.0066,-0.04586 0.0108,-0.08864 0.0092,-0.09506 -0.0016,-0.0064 0.0045,-0.05015 0.01337,-0.09716 0.0089,-0.04701 0.0205,-0.131374 0.02574,-0.187475 0.0052,-0.0561 0.01231,-0.106509 0.01572,-0.112018 0.0034,-0.0055 0.01084,-0.06167 0.01651,-0.124804 0.0057,-0.06313 0.01318,-0.119417 0.01668,-0.125074 0.0035,-0.0057 0.011,-0.06194 0.01668,-0.125073 0.0057,-0.06313 0.01313,-0.119331 0.01656,-0.124884 0.0034,-0.0056 0.01063,-0.05762 0.016,-0.115694 0.0054,-0.05808 0.01359,-0.121628 0.01828,-0.141221 0.0047,-0.01959 0.01143,-0.06564 0.01499,-0.102329 0.0036,-0.03669 0.07451,-0.577006 0.157644,-1.200705 0.08314,-0.623699 0.155207,-1.167768 0.16015,-1.209043 0.0049,-0.04127 0.01273,-0.09756 0.01731,-0.125073 0.0046,-0.02752 0.01138,-0.0763 0.0151,-0.108397 0.0058,-0.05011 0.03271,-0.253218 0.127001,-0.958896 0.0098,-0.07338 0.02499,-0.18219 0.03374,-0.241808 0.0088,-0.05962 0.01944,-0.138415 0.02376,-0.175103 0.0084,-0.07118 0.02419,-0.190101 0.03439,-0.258485 0.0052,-0.035 0.163149,-1.2213949 0.183144,-1.3758075 0.0036,-0.027516 0.01191,-0.087551 0.01855,-0.1334116 0.0066,-0.04586 0.0108,-0.088639 0.0092,-0.095064 -0.0016,-0.00642 0.0045,-0.050145 0.01337,-0.097156 0.0089,-0.047011 0.0205,-0.1313746 0.02574,-0.1874754 0.0052,-0.056101 0.01217,-0.1062837 0.01541,-0.1115177 0.0032,-0.00523 0.01065,-0.054445 0.01648,-0.1093572 0.0058,-0.054912 0.02172,-0.1786368 0.03532,-0.2749433 0.0136,-0.096307 0.02877,-0.2088726 0.03372,-0.2501468 0.005,-0.041274 0.02375,-0.1801057 0.04178,-0.3085144 0.01803,-0.1284086 0.03681,-0.268967 0.04173,-0.3123519 0.0049,-0.043385 0.03009,-0.2224119 0.05593,-0.3978379 0.04327,-0.2938026 0.05242,-0.3299592 0.116105,-0.4584752 0.06362,-0.1283828 0.1792,-0.2690288 0.294887,-0.3588275 0.04824,-0.037443 0.184629,-0.1093391 0.27338,-0.1441073 0.07112,-0.027862 0.396086,-0.02963 6.219328,-0.033826 6.776919,-0.00488 6.204291,-0.013459 6.42146,0.096167 0.258192,0.1303353 0.483812,0.4273104 0.515774,0.6788958 0.0202,0.1590353 0.0217,0.7177899 0.02331,8.6932509 0.0014,6.772791 7e-5,7.100765 -0.02846,7.204228 -0.0789,0.286134 -0.272687,0.521971 -0.536239,0.652591 l -0.14696,0.07283 -0.401519,0.01088 c -0.547112,0.01483 -13.737981,0.01214 -13.926122,-0.0028 z m 11.338464,-7.939128 c 0.135106,-0.03787 0.322735,-0.197561 0.363021,-0.308969 0.01123,-0.03106 0.02557,-0.05648 0.03186,-0.05648 0.02546,0 0.03218,-0.14202 0.04198,-0.8867 l 0.01025,-0.778304 -0.05335,-0.112907 c -0.06578,-0.13923 -0.206289,-0.281812 -0.340182,-0.345207 l -0.09577,-0.04535 -0.903685,0.0014 -0.903685,0.0014 -0.107062,0.04348 c -0.126597,0.05142 -0.268892,0.183734 -0.339366,0.315563 l -0.04603,0.0861 0.0044,0.831109 0.0044,0.831108 0.04469,0.09535 c 0.059,0.125878 0.142925,0.213894 0.269035,0.282147 0.100711,0.05451 0.10938,0.0561 0.361669,0.0666 0.38574,0.01605 1.580316,0.0014 1.657784,-0.02028 z m -8.106032,-0.03609 c 0.111433,-0.05925 0.231672,-0.172367 0.276916,-0.260507 l 0.02886,-0.05622 0.04354,0.07429 c 0.05725,0.09768 0.154532,0.183847 0.277885,0.246115 l 0.100076,0.05052 0.938526,-3.66e-4 c 0.873939,-3.41e-4 0.943117,-0.0025 1.005232,-0.03091 0.103548,-0.04742 0.23554,-0.16054 0.284198,-0.243569 0.02429,-0.04145 0.04649,-0.07536 0.04933,-0.07536 0.0028,0 0.02459,0.03314 0.04833,0.07364 0.05366,0.09156 0.148438,0.173878 0.267103,0.231982 l 0.09104,0.04458 0.939101,-1.63e-4 0.9391,-1.63e-4 0.08338,-0.03953 c 0.120352,-0.05706 0.215755,-0.146986 0.291893,-0.275145 l 0.06665,-0.112189 v -0.838856 -0.838857 l -0.0531,-0.09963 c -0.06272,-0.117668 -0.197857,-0.244272 -0.325004,-0.304473 l -0.08975,-0.04249 h -0.91683 -0.916831 l -0.08485,0.04093 c -0.121902,0.05881 -0.220607,0.139079 -0.28289,0.230059 -0.02983,0.04357 -0.05935,0.07921 -0.06562,0.07921 -0.0063,0 -0.01952,-0.01784 -0.02945,-0.03964 -0.02704,-0.05934 -0.11711,-0.156404 -0.194634,-0.209742 -0.144131,-0.09916 -0.162868,-0.100825 -1.137684,-0.100825 h -0.888708 l -0.09342,0.04423 c -0.09059,0.04289 -0.220291,0.154102 -0.279057,0.239268 -0.07687,0.111412 -0.06769,0.108906 -0.110785,0.03021 -0.05945,-0.108561 -0.184822,-0.221328 -0.295856,-0.266115 l -0.09731,-0.03925 h -0.925543 -0.925543 l -0.09172,0.0482 c -0.130995,0.06883 -0.283675,0.23038 -0.325191,0.344078 -0.03158,0.0865 -0.03335,0.13291 -0.03335,0.875137 0,0.730343 0.0022,0.78948 0.03176,0.867176 0.07016,0.184217 0.19029,0.311323 0.355106,0.375723 0.07482,0.02924 0.141197,0.03134 1.011626,0.03207 l 0.931547,7.8e-4 z m 10.988663,0.01027 c 0.118261,-0.05993 0.262834,-0.20941 0.317028,-0.327793 l 0.04421,-0.09656 -8.82e-4,-0.728922 c -4.85e-4,-0.400907 -0.0068,-0.774724 -0.01396,-0.830704 -0.02651,-0.206429 -0.168786,-0.392438 -0.361415,-0.472524 -0.09181,-0.03817 -0.124354,-0.04139 -0.531385,-0.05266 -0.238473,-0.0066 -0.516136,-0.0093 -0.617028,-0.006 -0.100893,0.0033 -0.307264,0.0074 -0.458603,0.0092 -0.181158,0.0021 -0.303647,0.01143 -0.358544,0.02727 -0.114258,0.03298 -0.251036,0.129646 -0.324924,0.22964 -0.123671,0.167369 -0.117676,0.113214 -0.112928,1.019984 l 0.0043,0.814425 0.0453,0.09671 c 0.04897,0.10452 0.195826,0.271506 0.26321,0.299278 0.149498,0.06161 0.141113,0.06114 1.088693,0.06188 l 0.930267,7.32e-4 z"
         id="path13" />
      <path
         style="opacity:0.874712;fill:#393940;fill-opacity:1;stroke:#0f0f14;stroke-width:0;stroke-linejoin:round;stroke-dasharray:none;stroke-opacity:0.198584"
         d="m 26.157652,25.518102 c -0.02433,-0.06341 0.373725,-3.235621 0.884572,-7.049357 0.510848,-3.813736 1.128096,-8.423167 1.371664,-10.2431805 0.243567,-1.8200132 0.475336,-3.3416008 0.515041,-3.3813057 0.03971,-0.039705 3.8486,-0.062044 8.464213,-0.049642 l 8.392022,0.022548 V 15.202796 25.588427 l -9.791636,0.02248 c -7.985415,0.01834 -9.799796,0.0012 -9.835876,-0.09281 z m 17.51382,-1.710568 c 0.498791,-0.32682 0.478508,0.04185 0.478508,-8.697576 V 7.0533901 L 43.849459,6.7528697 43.548939,6.4523494 h -6.321824 -6.321824 l -0.270278,0.2274233 c -0.148652,0.1250828 -0.30904,0.3736751 -0.356418,0.5524271 -0.04738,0.1787522 -0.549264,3.8108432 -1.115305,8.0713132 -0.987105,7.429724 -1.023368,7.758528 -0.8873,8.045269 0.302538,0.637551 -0.196854,0.59949 7.900051,0.602108 6.609739,0.0021 7.293332,-0.01094 7.495431,-0.143356 z"
         id="path17" />
      <g
         id="Screen_Squares">
        <rect
           style="opacity:0.874712;fill:#535e72;fill-opacity:0.917647;stroke:#be0f45;stroke-width:1.2;stroke-linejoin:round;stroke-opacity:0.966857"
           id="rect27"
           width="1.5514457"
           height="1.3323779"
           x="30.497429"
           y="14.039667" />
        <rect
           style="opacity:0.874712;fill:#535e72;fill-opacity:0.917647;stroke:#9e0fbe;stroke-width:1.2;stroke-linejoin:round;stroke-opacity:0.966857"
           id="rect27-6"
           width="1.5514457"
           height="1.3323779"
           x="33.200279"
           y="14.039667" />
        <rect
           style="opacity:0.874712;fill:#535e72;fill-opacity:0.917647;stroke:#0f36be;stroke-width:1.2;stroke-linejoin:round;stroke-opacity:0.966857"
           id="rect27-5"
           width="1.5514457"
           height="1.3323779"
           x="35.887463"
           y="14.039667" />
        <rect
           style="opacity:0.874712;fill:#535e72;fill-opacity:0.917647;stroke:#0fbea1;stroke-width:1.2;stroke-linejoin:round;stroke-opacity:0.966857"
           id="rect27-56"
           width="1.5514457"
           height="1.3323779"
           x="38.690575"
           y="14.039667" />
        <rect
           style="opacity:0.874712;fill:#535e72;fill-opacity:0.917647;stroke:#26be0f;stroke-width:1.2;stroke-linejoin:round;stroke-opacity:0.966857"
           id="rect27-9"
           width="1.5514457"
           height="1.3323779"
           x="41.497429"
           y="14.039667" />
      </g>
    </g>
  </g>
</svg>
